<svg id="svg" xmlns="http://www.w3.org/2000/svg" xmlns:xlink="http://www.w3.org/1999/xlink" width="400" height="100.47846889952153" viewBox="0, 0, 400,100.47846889952153" version="1.1"><g id="svgg"><path id="path0" d="M30.930 37.292 C 30.707 37.515,30.826 69.333,31.050 69.333 C 31.357 69.333,32.164 68.941,32.165 68.792 C 32.166 68.723,32.282 68.667,32.422 68.667 C 32.562 68.667,32.719 68.559,32.769 68.427 C 32.820 68.295,33.080 68.139,33.347 68.080 C 33.615 68.022,33.833 67.904,33.833 67.820 C 33.833 67.736,33.948 67.667,34.089 67.667 C 34.229 67.667,34.385 67.559,34.436 67.427 C 34.486 67.295,34.740 67.140,35.000 67.083 C 35.260 67.026,35.640 66.834,35.845 66.656 C 36.050 66.479,36.319 66.333,36.442 66.333 C 36.566 66.333,36.667 66.260,36.667 66.170 C 36.667 66.080,36.854 65.959,37.083 65.902 C 37.313 65.844,37.500 65.749,37.500 65.689 C 37.500 65.630,37.744 65.475,38.042 65.346 C 38.340 65.216,38.621 65.065,38.667 65.010 C 38.712 64.955,38.938 64.818,39.167 64.706 C 39.662 64.464,40.217 64.122,40.333 63.987 C 40.379 63.933,40.660 63.784,40.958 63.654 C 41.256 63.525,41.500 63.362,41.500 63.293 C 41.500 63.223,41.615 63.167,41.755 63.167 C 41.896 63.167,42.052 63.059,42.102 62.927 C 42.153 62.795,42.413 62.639,42.681 62.580 C 42.948 62.522,43.167 62.414,43.167 62.340 C 43.167 62.267,43.410 62.109,43.708 61.988 C 44.006 61.868,44.288 61.727,44.333 61.676 C 44.452 61.544,45.014 61.198,45.500 60.959 C 45.729 60.846,46.016 60.659,46.137 60.544 C 46.258 60.428,46.464 60.333,46.595 60.333 C 46.726 60.333,46.833 60.263,46.833 60.177 C 46.833 60.092,47.096 59.927,47.417 59.811 C 47.737 59.695,48.000 59.540,48.000 59.467 C 48.000 59.393,48.115 59.333,48.255 59.333 C 48.396 59.333,48.552 59.225,48.602 59.094 C 48.653 58.962,48.913 58.806,49.181 58.747 C 49.448 58.688,49.667 58.585,49.667 58.518 C 49.667 58.451,49.929 58.293,50.250 58.167 C 50.571 58.041,50.833 57.877,50.833 57.802 C 50.833 57.728,50.948 57.667,51.089 57.667 C 51.229 57.667,51.385 57.559,51.436 57.427 C 51.486 57.295,51.747 57.139,52.014 57.080 C 52.281 57.022,52.500 56.909,52.500 56.831 C 52.500 56.752,52.762 56.593,53.083 56.477 C 53.404 56.361,53.667 56.224,53.667 56.171 C 53.667 56.119,54.023 55.890,54.458 55.663 C 54.894 55.436,55.288 55.205,55.333 55.151 C 55.434 55.031,56.241 54.586,56.875 54.300 C 57.127 54.187,57.333 54.035,57.333 53.963 C 57.333 53.892,57.448 53.833,57.589 53.833 C 57.729 53.833,57.885 53.725,57.936 53.594 C 57.986 53.462,58.240 53.307,58.500 53.250 C 58.760 53.193,59.011 53.045,59.058 52.922 C 59.105 52.799,59.374 52.648,59.655 52.586 C 59.937 52.524,60.167 52.404,60.167 52.320 C 60.167 52.236,60.282 52.167,60.422 52.167 C 60.562 52.167,60.719 52.059,60.769 51.927 C 60.820 51.795,61.080 51.639,61.347 51.580 C 61.942 51.450,62.048 50.833,61.476 50.833 C 61.279 50.833,60.398 50.503,59.518 50.100 C 58.637 49.696,57.467 49.163,56.917 48.915 C 56.367 48.667,55.443 48.247,54.863 47.982 C 54.284 47.717,53.784 47.500,53.752 47.500 C 53.720 47.500,52.822 47.087,51.757 46.583 C 50.693 46.079,49.789 45.667,49.750 45.667 C 49.711 45.667,49.133 45.414,48.465 45.106 C 47.797 44.798,46.987 44.429,46.667 44.286 C 46.346 44.144,45.108 43.582,43.917 43.037 C 42.725 42.492,41.412 41.894,41.000 41.709 C 40.587 41.523,39.875 41.202,39.417 40.996 C 38.958 40.790,37.883 40.294,37.026 39.894 C 36.170 39.494,35.446 39.167,35.417 39.167 C 35.388 39.167,34.638 38.827,33.750 38.413 C 31.515 37.368,31.042 37.180,30.930 37.292 " stroke="none" fill="#ffffff" fill-rule="evenodd"></path><path id="path1" d="M30.470 0.417 C 30.365 0.646,30.224 0.833,30.156 0.833 C 30.088 0.833,29.947 1.040,29.843 1.292 C 29.650 1.758,29.405 2.190,28.827 3.083 C 28.649 3.358,28.411 3.771,28.297 4.000 C 28.183 4.229,28.047 4.454,27.995 4.500 C 27.943 4.546,27.679 4.950,27.409 5.398 C 27.138 5.846,26.750 6.484,26.546 6.815 C 26.342 7.146,26.127 7.548,26.068 7.708 C 26.009 7.869,25.911 8.000,25.850 8.000 C 25.788 8.000,25.516 8.431,25.244 8.958 C 24.972 9.485,24.706 9.954,24.652 10.000 C 24.544 10.091,23.628 11.670,23.298 12.333 C 23.184 12.563,22.995 12.810,22.879 12.883 C 22.762 12.957,22.667 13.125,22.667 13.258 C 22.667 13.391,22.608 13.500,22.537 13.500 C 22.465 13.500,22.318 13.706,22.209 13.958 C 22.007 14.427,21.656 15.018,21.491 15.167 C 21.440 15.213,21.299 15.494,21.179 15.792 C 21.058 16.090,20.899 16.333,20.824 16.333 C 20.750 16.333,20.636 16.502,20.572 16.708 C 20.508 16.915,20.403 17.121,20.338 17.167 C 20.274 17.212,19.743 18.075,19.159 19.083 C 18.574 20.092,17.999 21.016,17.881 21.137 C 17.763 21.258,17.667 21.464,17.667 21.595 C 17.667 21.726,17.592 21.833,17.500 21.833 C 17.408 21.833,17.333 21.934,17.333 22.058 C 17.333 22.255,17.190 22.468,16.510 23.277 C 16.420 23.384,16.297 23.671,16.235 23.916 C 16.174 24.160,16.028 24.397,15.910 24.442 C 15.793 24.487,15.647 24.724,15.585 24.969 C 15.524 25.213,15.419 25.452,15.353 25.498 C 15.287 25.545,15.053 25.883,14.833 26.250 C 14.614 26.617,14.393 26.954,14.342 27.000 C 14.291 27.046,14.025 27.514,13.750 28.041 C 13.475 28.568,13.199 28.999,13.136 28.999 C 13.074 29.000,12.973 29.157,12.912 29.349 C 12.851 29.541,12.594 30.010,12.340 30.391 C 12.087 30.772,11.700 31.417,11.481 31.825 C 11.097 32.541,10.992 32.699,10.542 33.237 C 10.427 33.374,10.333 33.545,10.333 33.618 C 10.333 33.691,9.845 34.537,9.249 35.500 C 8.653 36.462,8.074 37.438,7.961 37.667 C 7.849 37.896,7.711 38.121,7.656 38.167 C 7.600 38.212,7.339 38.625,7.075 39.083 C 6.811 39.542,6.537 39.942,6.465 39.972 C 6.392 40.003,6.333 40.087,6.333 40.160 C 6.333 40.295,5.645 41.518,5.125 42.308 C 4.965 42.551,4.752 42.956,4.651 43.208 C 4.550 43.460,4.407 43.667,4.333 43.667 C 4.260 43.667,4.118 43.873,4.019 44.125 C 3.821 44.626,3.526 45.116,3.219 45.452 C 3.111 45.571,2.969 45.837,2.905 46.043 C 2.841 46.248,2.738 46.454,2.676 46.500 C 2.614 46.546,2.272 47.071,1.917 47.667 C 1.561 48.262,1.221 48.788,1.161 48.833 C 0.750 49.148,0.105 50.833,0.396 50.833 C 0.603 50.833,1.141 50.603,4.167 49.218 C 4.671 48.988,6.246 48.275,7.667 47.636 C 9.088 46.996,10.625 46.298,11.083 46.085 C 12.756 45.308,17.867 43.000,17.916 43.000 C 17.944 43.000,18.593 42.709,19.358 42.353 C 21.168 41.511,23.940 40.247,27.292 38.734 C 27.819 38.496,28.625 38.126,29.083 37.911 C 29.542 37.695,30.123 37.442,30.375 37.347 L 30.833 37.175 30.833 18.587 C 30.833 8.364,30.794 -0.000,30.746 -0.000 C 30.699 -0.000,30.574 0.187,30.470 0.417 M155.625 19.817 C 155.350 20.151,155.333 21.734,155.333 47.840 C 155.333 74.036,155.349 75.517,155.625 75.630 C 156.005 75.786,162.828 75.786,163.208 75.630 C 163.483 75.518,163.500 74.727,163.500 62.357 L 163.500 49.204 164.101 48.727 C 164.432 48.465,164.891 48.077,165.121 47.865 C 165.974 47.079,168.248 45.800,169.356 45.483 C 169.756 45.369,170.170 45.210,170.275 45.131 C 170.888 44.670,174.490 44.794,175.160 45.298 C 176.062 45.977,176.455 46.507,176.591 47.231 C 176.653 47.562,176.770 47.833,176.850 47.833 C 177.044 47.833,177.024 46.963,177.144 60.750 L 177.250 72.917 177.786 74.000 C 178.336 75.112,179.141 75.833,179.831 75.833 C 180.016 75.833,180.167 75.896,180.167 75.972 C 180.167 76.158,183.314 76.165,183.429 75.980 C 183.479 75.899,183.669 75.833,183.852 75.833 C 184.266 75.833,185.571 75.247,186.212 74.774 C 186.689 74.421,186.768 73.605,186.350 73.342 C 185.743 72.959,185.596 70.289,185.505 58.036 C 185.443 49.572,185.362 45.952,185.234 45.869 C 185.133 45.803,185.006 45.409,184.950 44.993 C 184.895 44.576,184.734 44.013,184.592 43.743 C 184.451 43.472,184.335 43.172,184.334 43.077 C 184.333 42.793,183.500 41.285,182.957 40.583 C 182.366 39.819,180.694 38.333,180.425 38.333 C 180.356 38.333,180.064 38.224,179.775 38.091 C 178.048 37.293,175.017 36.950,172.917 37.314 C 170.991 37.648,170.000 37.890,170.000 38.028 C 170.000 38.104,169.880 38.167,169.734 38.167 C 169.487 38.167,169.065 38.323,168.000 38.810 C 167.181 39.185,165.749 40.038,165.694 40.185 C 165.664 40.266,165.544 40.333,165.429 40.333 C 165.313 40.333,165.083 40.483,164.917 40.667 C 164.751 40.850,164.532 41.000,164.431 41.000 C 164.330 41.000,164.153 41.150,164.039 41.333 C 163.553 42.111,163.514 41.490,163.462 32.042 C 163.405 21.764,163.366 21.288,162.531 20.774 C 162.404 20.696,162.178 20.489,162.030 20.316 C 161.881 20.142,161.632 20.000,161.477 20.000 C 161.322 20.000,161.168 19.919,161.135 19.821 C 161.002 19.422,155.954 19.419,155.625 19.817 M130.877 26.479 C 129.533 26.943,128.667 28.089,128.667 29.401 C 128.667 29.720,128.592 30.027,128.500 30.083 C 128.397 30.147,128.333 31.649,128.333 34.036 L 128.333 37.885 125.603 37.783 L 122.872 37.680 122.769 38.194 C 122.634 38.871,122.641 43.137,122.778 43.650 L 122.885 44.049 125.609 43.953 L 128.333 43.856 128.333 56.502 C 128.333 63.457,128.398 69.187,128.476 69.235 C 128.555 69.284,128.659 69.762,128.708 70.297 C 128.801 71.321,129.314 72.647,129.809 73.143 C 129.971 73.305,130.212 73.584,130.343 73.763 C 130.736 74.297,131.908 75.007,133.167 75.472 C 134.101 75.818,143.702 75.865,144.042 75.525 C 144.147 75.420,144.471 75.333,144.762 75.333 L 145.290 75.333 145.407 74.151 C 145.549 72.706,145.401 71.016,145.039 69.958 L 144.767 69.167 141.617 69.167 C 138.048 69.167,137.614 69.060,136.966 68.026 L 136.583 67.417 136.536 55.599 L 136.489 43.781 141.152 43.899 L 145.815 44.016 145.913 43.383 C 145.966 43.035,146.083 42.520,146.172 42.238 C 146.383 41.568,146.380 39.715,146.167 39.583 C 146.075 39.527,145.999 39.241,145.998 38.948 C 145.992 37.619,146.379 37.711,141.154 37.800 L 136.500 37.879 136.500 32.358 C 136.500 27.375,136.472 26.804,136.213 26.502 C 135.811 26.032,132.216 26.017,130.877 26.479 M97.667 37.005 C 97.438 37.080,96.894 37.188,96.458 37.247 C 96.023 37.306,95.667 37.424,95.667 37.510 C 95.667 37.596,95.516 37.667,95.333 37.667 C 95.149 37.667,94.719 37.817,94.377 38.000 C 94.035 38.183,93.660 38.333,93.544 38.333 C 93.428 38.333,93.333 38.394,93.333 38.468 C 93.333 38.542,93.052 38.729,92.708 38.883 C 91.419 39.463,88.377 42.409,88.070 43.374 C 88.008 43.572,87.853 43.837,87.728 43.962 C 87.603 44.088,87.500 44.298,87.500 44.429 C 87.500 44.560,87.426 44.667,87.337 44.667 C 87.247 44.667,87.126 44.854,87.068 45.083 C 87.011 45.313,86.884 45.500,86.787 45.500 C 86.690 45.500,86.655 45.544,86.710 45.599 C 86.764 45.653,86.670 46.021,86.500 46.417 C 86.330 46.812,86.236 47.180,86.290 47.235 C 86.345 47.289,86.306 47.333,86.205 47.333 C 86.103 47.333,85.970 47.672,85.908 48.085 C 85.846 48.499,85.736 48.874,85.663 48.919 C 85.591 48.964,85.478 49.394,85.414 49.875 C 85.349 50.356,85.224 50.839,85.136 50.948 C 85.049 51.057,84.933 52.125,84.880 53.323 C 84.827 54.520,84.713 55.500,84.627 55.500 C 84.536 55.500,84.511 55.935,84.568 56.542 C 84.621 57.115,84.739 58.654,84.829 59.963 C 84.920 61.272,85.062 62.472,85.146 62.630 C 85.230 62.788,85.353 63.422,85.419 64.040 C 85.485 64.657,85.596 65.127,85.667 65.083 C 85.738 65.040,85.847 65.414,85.909 65.916 C 85.972 66.418,86.083 66.865,86.155 66.910 C 86.228 66.955,86.383 67.331,86.499 67.746 C 86.615 68.161,86.767 68.500,86.837 68.500 C 86.907 68.500,87.011 68.688,87.068 68.917 C 87.126 69.146,87.247 69.333,87.337 69.333 C 87.426 69.333,87.500 69.420,87.500 69.526 C 87.500 69.805,88.910 71.824,89.543 72.452 C 90.839 73.737,91.296 74.075,92.789 74.853 C 93.658 75.307,94.755 75.759,95.226 75.858 C 95.698 75.958,96.175 76.113,96.287 76.203 C 96.598 76.453,102.358 76.558,104.083 76.346 C 104.908 76.245,105.746 76.144,105.945 76.122 C 106.143 76.101,106.362 76.027,106.431 75.958 C 106.499 75.890,106.720 75.833,106.921 75.833 C 107.289 75.833,109.320 75.222,110.250 74.832 C 111.340 74.374,113.253 73.410,113.306 73.292 C 113.336 73.223,113.462 73.167,113.585 73.167 C 113.709 73.167,113.910 73.066,114.033 72.943 C 114.156 72.820,114.424 72.630,114.628 72.520 C 115.013 72.315,115.144 71.609,114.833 71.417 C 114.742 71.360,114.664 71.112,114.661 70.865 C 114.658 70.618,114.510 70.117,114.333 69.750 C 114.156 69.383,114.009 68.990,114.006 68.875 C 114.003 68.760,113.930 68.667,113.845 68.667 C 113.759 68.667,113.646 68.535,113.594 68.375 C 113.302 67.476,111.667 66.467,111.667 67.186 C 111.667 67.267,111.610 67.323,111.542 67.309 C 111.473 67.296,111.154 67.388,110.833 67.512 C 110.513 67.637,110.194 67.723,110.125 67.703 C 110.056 67.683,110.000 67.736,110.000 67.820 C 110.000 67.904,109.775 68.023,109.500 68.083 C 109.225 68.144,109.000 68.254,109.000 68.328 C 109.000 68.402,108.719 68.515,108.375 68.580 C 108.031 68.644,107.675 68.757,107.583 68.831 C 106.951 69.343,99.667 69.992,99.667 69.536 C 99.667 69.455,99.573 69.389,99.458 69.388 C 99.000 69.387,97.500 68.958,97.500 68.828 C 97.500 68.752,97.331 68.636,97.125 68.570 C 96.497 68.372,95.214 66.875,94.660 65.697 C 93.869 64.012,93.856 63.977,93.687 63.083 C 93.600 62.625,93.485 62.063,93.432 61.833 C 93.379 61.604,93.287 60.948,93.228 60.375 L 93.121 59.333 104.231 59.333 L 115.342 59.333 115.538 58.875 C 116.223 57.270,115.646 47.297,114.817 46.425 C 114.734 46.338,114.667 46.163,114.667 46.036 C 114.667 44.855,112.275 41.542,110.248 39.917 C 109.791 39.550,109.378 39.198,109.330 39.135 C 109.218 38.987,108.288 38.605,108.125 38.640 C 108.056 38.655,108.000 38.598,108.000 38.513 C 108.000 38.429,107.775 38.310,107.500 38.250 C 107.225 38.190,107.000 38.079,107.000 38.005 C 107.000 37.931,106.719 37.818,106.375 37.754 C 106.031 37.689,105.667 37.569,105.567 37.485 C 105.466 37.402,105.016 37.286,104.567 37.227 C 104.117 37.169,103.671 37.059,103.576 36.985 C 103.351 36.810,98.216 36.828,97.667 37.005 M208.926 36.985 C 208.880 37.059,208.441 37.167,207.951 37.224 C 207.461 37.282,206.823 37.447,206.534 37.591 C 206.245 37.735,205.862 37.864,205.683 37.878 C 205.503 37.891,205.393 37.962,205.438 38.035 C 205.483 38.107,205.374 38.167,205.197 38.167 C 205.019 38.167,204.781 38.279,204.667 38.417 C 204.553 38.554,204.371 38.667,204.262 38.667 C 204.154 38.667,203.762 38.890,203.390 39.163 C 203.019 39.436,202.686 39.643,202.649 39.622 C 202.613 39.601,202.600 39.612,202.620 39.647 C 202.640 39.683,202.411 39.908,202.112 40.147 C 201.106 40.954,199.265 43.094,199.082 43.670 C 199.025 43.852,198.914 44.000,198.835 44.000 C 198.757 44.000,198.645 44.220,198.586 44.488 C 198.527 44.757,198.371 45.066,198.239 45.176 C 198.108 45.285,198.000 45.500,198.000 45.654 C 198.000 45.808,197.930 46.005,197.844 46.092 C 197.667 46.272,196.833 48.756,196.833 49.105 C 196.833 49.230,196.758 49.333,196.667 49.333 C 196.575 49.333,196.513 49.390,196.529 49.458 C 196.599 49.760,196.293 51.620,196.114 51.984 C 195.838 52.544,195.838 60.957,196.114 61.516 C 196.223 61.737,196.360 62.422,196.419 63.040 C 196.478 63.658,196.595 64.206,196.680 64.258 C 196.764 64.310,196.833 64.550,196.833 64.790 C 196.833 65.981,198.436 69.687,199.498 70.951 C 199.591 71.062,199.667 71.199,199.667 71.256 C 199.667 71.313,200.107 71.801,200.646 72.339 C 201.185 72.878,201.585 73.360,201.535 73.409 C 201.485 73.459,201.558 73.500,201.698 73.500 C 201.837 73.500,202.135 73.669,202.358 73.875 C 202.582 74.081,203.062 74.400,203.424 74.583 C 203.787 74.767,204.108 74.973,204.139 75.042 C 204.169 75.110,204.282 75.167,204.389 75.168 C 204.496 75.168,204.808 75.286,205.083 75.429 C 207.149 76.507,213.221 76.851,217.000 76.105 C 217.229 76.060,217.829 75.943,218.333 75.845 C 218.838 75.748,219.400 75.600,219.583 75.517 C 219.767 75.434,220.404 75.195,221.000 74.985 C 221.596 74.776,222.121 74.562,222.167 74.510 C 222.213 74.458,222.547 74.311,222.911 74.184 C 223.274 74.057,223.673 73.851,223.797 73.726 C 223.922 73.602,224.131 73.500,224.262 73.500 C 224.393 73.500,224.500 73.425,224.500 73.333 C 224.500 73.242,224.568 73.167,224.652 73.167 C 225.703 73.167,226.477 71.584,225.834 70.750 C 225.763 70.658,225.653 70.340,225.589 70.042 C 225.526 69.744,225.410 69.500,225.333 69.500 C 225.256 69.500,225.145 69.281,225.086 69.014 C 225.028 68.746,224.853 68.378,224.698 68.196 C 224.543 68.014,224.304 67.701,224.167 67.502 C 223.711 66.841,223.408 66.792,222.546 67.237 C 222.108 67.463,221.637 67.671,221.500 67.699 C 221.362 67.727,221.213 67.791,221.167 67.842 C 221.017 68.008,219.361 68.667,219.094 68.667 C 218.951 68.667,218.833 68.728,218.833 68.803 C 218.833 68.934,216.308 69.436,215.875 69.392 C 215.760 69.380,215.667 69.437,215.667 69.519 C 215.667 69.697,210.942 69.720,210.764 69.542 C 210.695 69.473,210.589 69.413,210.528 69.409 C 210.053 69.378,208.667 68.937,208.667 68.817 C 208.667 68.734,208.560 68.667,208.430 68.667 C 207.983 68.667,206.565 67.188,206.080 66.217 C 205.815 65.685,205.548 65.212,205.486 65.167 C 205.425 65.121,205.320 64.821,205.252 64.500 C 205.184 64.179,205.069 63.842,204.997 63.750 C 204.871 63.591,204.453 60.707,204.428 59.833 L 204.417 59.417 215.519 59.374 L 226.622 59.331 226.728 58.559 C 226.786 58.134,226.833 57.385,226.833 56.893 C 226.833 56.402,226.908 56.000,227.000 56.000 C 227.104 56.000,227.167 55.056,227.167 53.500 C 227.167 51.944,227.104 51.000,227.000 51.000 C 226.908 51.000,226.833 50.687,226.833 50.305 C 226.833 49.399,226.503 47.461,226.314 47.258 C 226.233 47.171,226.164 46.984,226.161 46.842 C 226.158 46.700,226.010 46.283,225.833 45.917 C 225.656 45.550,225.509 45.156,225.506 45.042 C 225.503 44.927,225.431 44.833,225.347 44.833 C 225.262 44.833,225.144 44.608,225.083 44.332 C 225.022 44.056,224.885 43.737,224.778 43.623 C 224.670 43.510,224.384 43.117,224.142 42.750 C 223.580 41.902,222.277 40.555,221.417 39.932 C 221.050 39.667,220.675 39.367,220.583 39.265 C 220.383 39.041,219.467 38.597,219.292 38.638 C 219.223 38.654,219.167 38.592,219.167 38.500 C 219.167 38.408,219.073 38.331,218.958 38.328 C 218.844 38.325,218.450 38.177,218.083 38.000 C 217.717 37.823,217.300 37.675,217.158 37.672 C 217.016 37.669,216.821 37.587,216.724 37.490 C 216.627 37.393,216.124 37.270,215.607 37.217 C 215.090 37.164,214.667 37.059,214.667 36.985 C 214.667 36.809,209.035 36.809,208.926 36.985 M276.830 36.995 C 276.694 37.069,276.190 37.182,275.708 37.247 C 275.227 37.312,274.833 37.433,274.833 37.516 C 274.833 37.599,274.711 37.667,274.562 37.667 C 274.238 37.667,271.952 38.755,271.259 39.240 C 269.990 40.127,267.901 42.192,267.731 42.727 C 267.671 42.914,267.539 43.162,267.436 43.278 C 266.985 43.788,266.833 43.993,266.833 44.096 C 266.833 44.157,266.579 44.629,266.268 45.145 C 265.957 45.661,265.651 46.402,265.587 46.792 C 265.523 47.181,265.411 47.500,265.337 47.500 C 265.264 47.500,265.151 47.781,265.087 48.125 C 265.023 48.469,264.909 48.825,264.835 48.917 C 264.760 49.008,264.620 49.533,264.524 50.083 C 264.427 50.633,264.264 51.533,264.163 52.083 C 263.905 53.470,264.049 62.197,264.335 62.583 C 264.403 62.675,264.513 63.200,264.579 63.750 C 264.645 64.300,264.757 64.825,264.828 64.917 C 264.899 65.008,265.011 65.383,265.077 65.750 C 265.143 66.117,265.254 66.492,265.325 66.583 C 265.396 66.675,265.507 66.975,265.572 67.250 C 265.712 67.845,266.364 69.227,266.542 69.306 C 266.610 69.336,266.667 69.455,266.667 69.570 C 266.667 69.811,267.787 71.413,268.508 72.203 C 268.779 72.499,269.000 72.799,269.000 72.870 C 269.000 72.942,269.112 73.000,269.250 73.000 C 269.387 73.000,269.500 73.113,269.500 73.250 C 269.500 73.388,269.556 73.482,269.625 73.459 C 269.694 73.437,269.938 73.552,270.167 73.715 C 271.060 74.350,271.855 74.833,272.007 74.833 C 272.095 74.833,272.167 74.908,272.167 75.000 C 272.167 75.092,272.260 75.169,272.375 75.172 C 272.490 75.175,272.883 75.323,273.250 75.500 C 273.617 75.677,274.085 75.825,274.292 75.828 C 274.498 75.831,274.667 75.907,274.667 75.998 C 274.667 76.089,274.835 76.163,275.042 76.162 C 275.248 76.162,275.867 76.232,276.417 76.317 C 278.267 76.604,283.264 76.486,285.167 76.111 C 286.226 75.902,288.730 75.145,288.908 74.980 C 288.995 74.899,289.169 74.833,289.294 74.833 C 289.419 74.833,289.931 74.646,290.432 74.417 C 290.933 74.187,291.410 74.000,291.491 74.000 C 291.572 74.000,291.664 73.944,291.694 73.875 C 291.725 73.806,292.106 73.564,292.542 73.337 C 292.977 73.110,293.333 72.878,293.333 72.822 C 293.333 72.766,293.521 72.635,293.750 72.530 C 294.184 72.333,294.353 71.468,294.000 71.250 C 293.908 71.193,293.833 71.006,293.833 70.834 C 293.833 70.662,293.746 70.311,293.639 70.053 C 293.532 69.794,293.435 69.546,293.423 69.500 C 293.327 69.126,292.588 67.949,292.120 67.422 L 291.545 66.776 290.122 67.472 C 289.340 67.854,288.579 68.167,288.433 68.167 C 288.286 68.167,288.167 68.233,288.167 68.315 C 288.167 68.457,287.061 68.757,286.779 68.691 C 286.704 68.673,286.685 68.728,286.737 68.812 C 286.789 68.897,286.176 69.060,285.374 69.174 C 284.573 69.289,283.845 69.447,283.758 69.525 C 283.142 70.077,277.326 69.463,276.554 68.763 C 276.445 68.664,276.042 68.358,275.660 68.083 C 274.893 67.532,274.080 66.462,273.908 65.776 C 273.847 65.532,273.734 65.333,273.656 65.333 C 273.579 65.333,273.466 65.070,273.405 64.748 C 273.345 64.426,273.232 64.124,273.155 64.076 C 273.078 64.028,273.060 63.872,273.115 63.728 C 273.170 63.584,273.130 63.413,273.025 63.349 C 272.920 63.284,272.786 62.654,272.726 61.949 C 272.667 61.244,272.554 60.667,272.476 60.667 C 272.397 60.667,272.333 60.367,272.333 60.000 L 272.333 59.333 283.492 59.333 L 294.652 59.333 294.734 58.792 C 295.327 54.907,295.187 48.611,294.489 47.742 C 294.411 47.646,294.298 47.253,294.236 46.870 C 294.175 46.486,294.066 46.210,293.993 46.254 C 293.920 46.299,293.807 46.092,293.742 45.793 C 293.677 45.494,293.521 45.102,293.395 44.921 C 293.270 44.740,293.167 44.500,293.167 44.388 C 293.167 44.204,292.839 43.698,291.714 42.145 C 290.590 40.592,287.345 38.175,286.375 38.168 C 286.260 38.167,286.167 38.106,286.167 38.032 C 286.167 37.858,283.871 37.167,283.294 37.167 C 283.051 37.167,282.805 37.089,282.747 36.994 C 282.620 36.789,277.206 36.790,276.830 36.995 M238.578 37.570 C 238.137 37.880,237.922 38.091,237.334 38.787 C 236.651 39.596,235.801 41.833,236.177 41.833 C 236.274 41.833,236.307 41.908,236.250 42.000 C 236.193 42.092,236.229 42.167,236.329 42.167 C 236.429 42.167,236.560 42.296,236.621 42.455 C 236.682 42.613,236.886 42.894,237.074 43.080 C 237.501 43.499,237.862 44.249,238.362 45.750 L 238.750 46.917 238.833 61.243 L 238.917 75.568 239.333 75.684 C 239.860 75.831,245.539 75.865,246.375 75.726 L 247.000 75.623 247.000 63.303 L 247.000 50.983 247.375 50.293 C 248.129 48.908,250.288 46.500,250.777 46.500 C 250.884 46.500,250.997 46.444,251.028 46.375 C 251.318 45.722,252.766 45.417,255.579 45.417 L 258.408 45.417 258.570 44.958 C 258.658 44.706,258.792 44.500,258.866 44.500 C 258.939 44.500,259.000 44.406,259.001 44.292 C 259.002 44.177,259.108 43.880,259.238 43.631 C 259.368 43.383,259.568 42.745,259.683 42.215 C 259.798 41.684,259.925 41.137,259.965 41.000 C 260.006 40.862,260.075 40.065,260.118 39.228 L 260.197 37.707 259.557 37.596 C 257.210 37.192,253.333 37.147,253.333 37.524 C 253.333 37.602,253.127 37.667,252.875 37.668 C 252.623 37.668,252.202 37.781,251.939 37.918 C 251.677 38.055,251.363 38.167,251.243 38.167 C 251.122 38.167,250.921 38.269,250.796 38.395 C 250.670 38.520,250.406 38.674,250.208 38.737 C 249.815 38.862,247.568 41.010,247.167 41.645 C 247.029 41.863,246.842 42.125,246.750 42.229 C 246.658 42.332,246.458 42.679,246.305 43.000 L 246.026 43.583 245.909 43.042 C 245.844 42.744,245.734 42.500,245.664 42.500 C 245.594 42.500,245.487 42.303,245.426 42.062 C 245.252 41.370,243.207 38.839,242.817 38.835 C 242.762 38.834,242.545 38.683,242.333 38.500 C 242.122 38.317,241.848 38.167,241.724 38.167 C 241.601 38.167,241.500 38.107,241.500 38.035 C 241.500 37.917,240.693 37.633,239.494 37.330 C 239.202 37.257,238.918 37.331,238.578 37.570 M366.001 37.290 C 365.680 37.329,365.343 37.420,365.251 37.492 C 365.069 37.634,363.836 37.910,363.613 37.857 C 363.537 37.840,363.523 37.902,363.581 37.996 C 363.639 38.090,363.588 38.167,363.468 38.167 C 362.744 38.170,359.454 40.232,358.083 41.543 L 357.583 42.021 357.476 41.175 C 357.306 39.829,356.676 38.784,355.636 38.124 C 354.361 37.315,350.558 37.053,349.792 37.722 L 349.333 38.122 349.333 56.707 C 349.333 73.792,349.356 75.311,349.609 75.521 C 349.909 75.771,356.964 75.868,357.542 75.630 C 357.816 75.518,357.833 74.723,357.833 62.273 L 357.833 49.036 358.974 47.976 C 359.601 47.392,360.445 46.691,360.849 46.416 C 361.253 46.142,361.621 45.872,361.667 45.816 C 361.712 45.760,362.050 45.610,362.417 45.483 C 362.783 45.356,363.137 45.176,363.202 45.084 C 363.379 44.835,367.363 44.867,367.670 45.120 C 369.082 46.286,369.667 47.380,369.667 48.858 C 369.667 49.211,369.742 49.500,369.833 49.500 C 369.943 49.500,370.000 53.946,370.000 62.505 C 370.000 74.734,370.017 75.518,370.292 75.630 C 370.672 75.786,377.661 75.786,378.042 75.630 C 378.316 75.518,378.333 74.724,378.333 62.296 L 378.333 49.082 378.958 48.452 C 379.872 47.533,380.827 46.667,380.926 46.667 C 381.011 46.667,382.001 46.000,382.167 45.832 C 382.877 45.108,387.716 44.501,388.131 45.084 C 388.197 45.175,388.456 45.357,388.708 45.487 C 388.960 45.617,389.167 45.814,389.167 45.924 C 389.167 46.035,389.267 46.209,389.389 46.311 C 389.512 46.412,389.706 46.815,389.822 47.206 C 389.938 47.597,390.119 48.067,390.225 48.250 C 390.363 48.491,390.431 51.934,390.469 60.663 C 390.498 67.306,390.583 72.819,390.658 72.913 C 390.733 73.007,390.849 73.337,390.915 73.647 C 391.295 75.420,394.602 76.747,396.667 75.955 C 396.804 75.902,397.198 75.813,397.542 75.755 C 397.885 75.698,398.167 75.586,398.167 75.506 C 398.167 75.425,398.392 75.310,398.667 75.250 C 398.942 75.190,399.167 75.071,399.167 74.987 C 399.167 74.902,399.277 74.833,399.411 74.833 C 399.946 74.833,400.003 74.252,399.593 72.979 C 398.919 70.888,398.869 69.957,398.846 59.150 C 398.825 49.040,398.701 45.520,398.340 44.846 C 398.245 44.668,398.164 44.386,398.161 44.219 C 398.158 44.053,398.010 43.617,397.833 43.250 C 397.656 42.883,397.509 42.490,397.506 42.375 C 397.503 42.260,397.425 42.167,397.333 42.167 C 397.242 42.167,397.167 42.077,397.167 41.967 C 397.167 41.289,394.599 38.546,393.696 38.259 C 393.496 38.196,393.333 38.083,393.333 38.007 C 393.333 37.932,393.052 37.818,392.709 37.753 C 392.365 37.689,392.034 37.555,391.973 37.456 C 391.817 37.204,387.618 37.088,386.583 37.308 C 386.125 37.405,385.425 37.554,385.028 37.639 C 384.631 37.724,384.223 37.877,384.120 37.980 C 384.017 38.083,383.831 38.167,383.706 38.167 C 383.424 38.167,381.604 39.037,381.528 39.208 C 381.497 39.277,381.390 39.333,381.290 39.333 C 380.987 39.333,378.509 41.071,377.429 42.042 C 376.941 42.479,376.787 42.404,376.351 41.516 C 376.021 40.842,374.679 39.296,373.798 38.574 C 372.385 37.417,369.241 36.899,366.001 37.290 M307.833 37.500 C 307.833 37.592,307.624 37.667,307.368 37.667 C 305.839 37.667,304.292 39.150,304.879 40.052 C 305.010 40.253,305.172 40.716,305.240 41.083 C 305.308 41.449,305.451 41.803,305.557 41.868 C 305.700 41.957,305.763 45.125,305.802 53.994 C 305.830 60.597,305.913 66.000,305.986 66.000 C 306.058 66.000,306.167 66.581,306.227 67.292 C 306.287 68.002,306.406 68.607,306.492 68.636 C 306.578 68.665,306.606 68.797,306.555 68.930 C 306.504 69.062,306.536 69.264,306.625 69.377 C 306.799 69.598,307.072 70.502,307.027 70.708 C 307.012 70.777,307.062 70.833,307.137 70.833 C 307.213 70.833,307.452 71.190,307.670 71.625 C 308.256 72.800,310.108 74.833,310.591 74.833 C 310.724 74.833,310.833 74.895,310.833 74.969 C 310.833 75.129,312.473 75.833,312.845 75.833 C 312.985 75.833,313.185 75.918,313.289 76.022 C 313.610 76.343,318.450 76.288,319.333 75.953 C 319.471 75.901,319.940 75.811,320.375 75.752 C 320.810 75.694,321.167 75.576,321.167 75.490 C 321.167 75.404,321.298 75.331,321.458 75.328 C 321.619 75.325,322.050 75.177,322.417 75.000 C 322.783 74.823,323.171 74.675,323.278 74.672 C 323.385 74.669,323.497 74.610,323.528 74.542 C 323.558 74.473,323.956 74.229,324.411 74.000 C 325.410 73.497,327.588 71.931,328.174 71.295 L 328.598 70.834 329.040 71.799 C 330.284 74.509,334.160 76.778,335.777 75.743 C 336.678 75.165,337.348 74.292,337.943 72.919 C 338.307 72.077,338.278 71.797,337.765 71.218 C 337.289 70.679,337.192 70.498,336.858 69.533 C 336.661 68.964,336.500 68.274,336.500 67.999 C 336.500 67.725,336.425 67.500,336.333 67.500 C 336.223 67.500,336.167 62.444,336.167 52.667 C 336.167 44.508,336.148 37.826,336.125 37.818 C 336.102 37.809,335.371 37.732,334.500 37.647 C 333.629 37.562,332.515 37.449,332.025 37.396 C 331.473 37.337,331.063 37.370,330.950 37.484 C 330.849 37.584,330.225 37.667,329.564 37.667 C 328.902 37.667,328.242 37.712,328.097 37.768 C 327.860 37.859,327.833 39.182,327.833 51.022 L 327.833 64.176 327.042 64.921 C 326.606 65.331,325.950 65.873,325.583 66.124 C 325.217 66.376,324.878 66.633,324.832 66.695 C 324.785 66.756,324.541 66.858,324.290 66.922 C 324.039 66.985,323.833 67.095,323.833 67.166 C 323.833 67.238,323.496 67.396,323.083 67.518 C 322.671 67.640,322.333 67.798,322.333 67.870 C 322.333 67.941,322.202 68.000,322.042 68.001 C 321.881 68.002,321.548 68.107,321.302 68.236 C 320.725 68.537,318.588 68.737,317.460 68.596 C 316.012 68.415,314.736 67.053,314.551 65.493 C 314.498 65.038,314.393 64.667,314.318 64.667 C 314.244 64.667,314.160 59.210,314.133 52.542 L 314.083 40.417 313.636 39.568 C 313.134 38.617,312.152 37.667,311.671 37.667 C 311.496 37.667,311.307 37.592,311.250 37.500 C 311.193 37.407,310.415 37.333,309.490 37.333 C 308.497 37.333,307.833 37.400,307.833 37.500 M103.667 43.703 C 105.213 44.406,107.000 46.454,107.000 47.525 C 107.000 47.695,107.072 47.833,107.159 47.833 C 107.247 47.833,107.369 48.115,107.431 48.458 C 107.493 48.802,107.608 49.165,107.686 49.264 C 107.765 49.364,107.879 50.320,107.940 51.389 L 108.051 53.333 100.591 53.333 L 93.132 53.333 93.233 52.625 C 93.432 51.240,93.467 51.017,93.667 49.834 C 93.778 49.176,93.973 48.438,94.100 48.194 C 94.227 47.950,94.332 47.619,94.332 47.458 C 94.333 47.298,94.400 47.167,94.482 47.167 C 94.564 47.167,94.674 46.993,94.727 46.781 C 94.781 46.568,94.974 46.212,95.158 45.989 C 96.103 44.839,96.601 44.333,96.790 44.333 C 96.906 44.333,97.000 44.259,97.000 44.169 C 97.000 43.977,97.997 43.515,98.833 43.321 C 100.029 43.042,102.672 43.251,103.667 43.703 M214.476 43.562 C 214.641 43.711,214.874 43.833,214.993 43.833 C 215.213 43.833,216.345 44.469,216.500 44.679 C 216.546 44.741,216.733 44.997,216.917 45.248 C 217.100 45.498,217.335 45.793,217.438 45.903 C 217.704 46.185,218.500 47.900,218.500 48.191 C 218.500 48.324,218.575 48.508,218.666 48.599 C 218.757 48.691,218.881 49.458,218.941 50.305 C 219.002 51.152,219.114 51.884,219.192 51.932 C 219.270 51.980,219.333 52.315,219.333 52.677 L 219.333 53.333 211.815 53.333 L 204.296 53.333 204.394 52.792 C 204.447 52.494,204.575 51.538,204.678 50.667 C 204.781 49.796,204.933 49.058,205.016 49.028 C 205.099 48.997,205.167 48.805,205.167 48.600 C 205.167 47.639,206.694 45.320,208.049 44.223 C 208.321 44.002,209.583 43.415,210.083 43.276 C 210.840 43.066,214.167 43.282,214.476 43.562 M282.651 43.595 C 283.604 43.936,285.833 45.928,285.833 46.440 C 285.833 46.507,285.974 46.866,286.147 47.239 C 286.757 48.558,287.027 49.748,287.121 51.530 L 287.217 53.333 279.775 53.333 L 272.333 53.333 272.333 52.760 C 272.333 52.444,272.399 52.146,272.478 52.097 C 272.558 52.048,272.675 51.407,272.739 50.673 C 272.803 49.939,272.917 49.301,272.992 49.255 C 273.067 49.208,273.182 48.888,273.246 48.544 C 273.311 48.199,273.516 47.579,273.703 47.167 C 274.211 46.046,274.890 45.203,276.109 44.178 C 277.308 43.171,280.634 42.875,282.651 43.595 M-0.000 56.825 C -0.000 57.093,0.379 57.833,0.516 57.833 C 0.586 57.833,0.692 57.983,0.750 58.166 C 0.808 58.348,0.957 58.600,1.081 58.724 C 1.314 58.957,2.475 60.585,4.635 63.708 C 5.317 64.694,5.940 65.500,6.020 65.500 C 6.101 65.500,6.167 65.578,6.167 65.673 C 6.167 65.893,6.849 66.873,7.125 67.050 C 7.240 67.123,7.333 67.259,7.333 67.352 C 7.333 67.492,8.079 68.580,8.640 69.259 C 8.720 69.355,9.002 69.768,9.267 70.176 C 9.532 70.583,9.825 71.001,9.916 71.105 C 10.008 71.208,10.196 71.459,10.333 71.663 C 10.599 72.056,11.735 73.637,11.953 73.917 C 12.025 74.008,12.308 74.421,12.583 74.833 C 12.858 75.246,13.158 75.674,13.250 75.786 C 13.640 76.260,13.763 76.441,13.986 76.875 C 14.117 77.127,14.285 77.333,14.361 77.333 C 14.438 77.333,14.500 77.427,14.500 77.542 C 14.500 77.656,14.760 78.050,15.078 78.417 C 15.396 78.783,15.733 79.174,15.828 79.285 C 15.923 79.395,16.000 79.553,16.000 79.635 C 16.000 79.717,16.187 79.987,16.417 80.234 C 16.646 80.482,16.833 80.759,16.833 80.851 C 16.833 80.943,17.058 81.258,17.333 81.551 C 17.607 81.844,17.832 82.163,17.833 82.261 C 17.833 82.359,18.096 82.734,18.417 83.095 C 18.737 83.455,19.000 83.812,19.000 83.887 C 19.000 83.962,19.094 84.128,19.208 84.256 C 19.712 84.818,19.839 85.000,19.725 85.000 C 19.658 85.000,19.715 85.094,19.853 85.208 C 20.418 85.680,22.508 88.767,22.368 88.923 C 22.303 88.995,22.344 88.999,22.458 88.934 C 22.573 88.868,22.667 88.888,22.667 88.978 C 22.667 89.069,22.760 89.242,22.875 89.363 C 22.990 89.484,23.308 89.921,23.583 90.333 C 23.858 90.746,24.140 91.108,24.208 91.139 C 24.277 91.169,24.333 91.297,24.333 91.422 C 24.333 91.548,24.431 91.710,24.551 91.783 C 24.670 91.857,24.946 92.217,25.163 92.583 C 25.381 92.950,25.676 93.371,25.821 93.519 C 25.965 93.667,26.196 93.957,26.333 94.163 C 26.471 94.370,26.808 94.850,27.083 95.232 C 27.358 95.614,27.658 96.050,27.750 96.201 C 27.842 96.353,28.554 97.363,29.333 98.447 L 30.750 100.417 30.793 87.602 C 30.835 74.930,30.806 74.125,30.314 74.428 C 30.233 74.479,30.167 74.457,30.167 74.381 C 30.167 74.305,29.810 74.057,29.375 73.830 C 28.940 73.603,28.546 73.373,28.500 73.319 C 28.378 73.176,26.044 71.833,25.917 71.833 C 25.858 71.833,25.705 71.740,25.577 71.625 C 25.150 71.242,24.920 71.085,24.417 70.834 C 24.142 70.697,22.927 70.003,21.717 69.292 C 20.508 68.581,19.439 68.000,19.342 68.000 C 19.246 68.000,19.167 67.937,19.167 67.860 C 19.167 67.727,18.263 67.240,18.238 67.360 C 18.232 67.391,18.103 67.304,17.952 67.167 C 17.424 66.684,17.180 66.500,17.070 66.500 C 16.942 66.500,12.958 64.164,12.833 64.016 C 12.787 63.961,12.412 63.739,12.000 63.522 C 9.985 62.462,9.667 62.277,9.667 62.161 C 9.667 62.092,9.470 61.987,9.230 61.927 C 8.990 61.866,8.692 61.727,8.569 61.617 C 8.065 61.167,7.842 61.000,7.744 61.000 C 7.562 61.000,5.252 59.616,5.194 59.472 C 5.164 59.396,5.066 59.333,4.977 59.333 C 4.796 59.333,1.631 57.507,1.500 57.327 C 1.454 57.263,1.248 57.159,1.042 57.095 C 0.835 57.030,0.667 56.908,0.667 56.822 C 0.667 56.737,0.517 56.667,0.333 56.667 C 0.150 56.667,-0.000 56.738,-0.000 56.825 " stroke="none" fill="#ffffff" fill-rule="evenodd"></path><path id="path2" d="M30.833 18.567 L 30.833 37.175 30.375 37.347 C 30.123 37.442,29.542 37.695,29.083 37.911 C 28.625 38.126,27.819 38.496,27.292 38.734 C 23.940 40.247,21.168 41.511,19.358 42.353 C 18.593 42.709,17.944 43.000,17.916 43.000 C 17.867 43.000,12.756 45.308,11.083 46.085 C 10.625 46.298,9.088 46.996,7.667 47.636 C 6.246 48.275,4.671 48.988,4.167 49.218 C 1.098 50.623,0.595 50.833,0.313 50.833 C -0.450 50.833,0.163 51.399,2.292 52.658 C 3.552 53.404,4.696 54.084,4.833 54.171 C 4.971 54.257,6.208 54.977,7.583 55.772 C 8.958 56.567,10.122 57.276,10.170 57.348 C 10.218 57.420,10.443 57.559,10.670 57.656 C 10.897 57.753,11.196 57.904,11.333 57.990 C 11.471 58.077,12.333 58.581,13.250 59.111 C 14.167 59.641,14.954 60.116,15.000 60.166 C 15.046 60.216,15.271 60.351,15.500 60.465 C 16.006 60.718,17.534 61.601,18.429 62.157 C 18.789 62.380,19.421 62.746,19.833 62.969 C 20.246 63.192,20.702 63.477,20.846 63.604 C 20.991 63.730,21.197 63.833,21.305 63.833 C 21.412 63.833,21.500 63.908,21.500 64.000 C 21.500 64.092,21.594 64.167,21.708 64.168 C 21.823 64.169,22.388 64.469,22.965 64.835 C 23.542 65.201,24.049 65.500,24.093 65.500 C 24.137 65.500,24.491 65.704,24.878 65.953 C 26.038 66.698,26.567 67.004,26.875 67.107 C 27.035 67.161,27.167 67.263,27.167 67.333 C 27.167 67.404,27.298 67.504,27.458 67.557 C 27.619 67.609,28.050 67.842,28.417 68.074 C 28.783 68.307,29.269 68.577,29.497 68.675 C 29.724 68.774,29.949 68.914,29.997 68.988 C 30.044 69.062,30.252 69.174,30.458 69.239 L 30.833 69.356 30.833 53.372 C 30.833 44.581,30.877 37.345,30.930 37.292 C 31.042 37.180,31.515 37.368,33.750 38.413 C 34.638 38.827,35.388 39.167,35.417 39.167 C 35.446 39.167,36.170 39.494,37.026 39.894 C 37.883 40.294,38.958 40.790,39.417 40.996 C 39.875 41.202,40.587 41.523,41.000 41.709 C 41.412 41.894,42.725 42.492,43.917 43.037 C 45.108 43.582,46.346 44.144,46.667 44.286 C 46.987 44.429,47.797 44.798,48.465 45.106 C 49.133 45.414,49.711 45.667,49.750 45.667 C 49.789 45.667,50.693 46.079,51.757 46.583 C 52.822 47.088,53.720 47.500,53.752 47.500 C 53.784 47.500,54.284 47.717,54.863 47.982 C 55.443 48.247,56.367 48.667,56.917 48.915 C 57.467 49.163,58.649 49.702,59.543 50.112 C 61.633 51.069,61.844 51.031,61.087 49.833 C 60.768 49.329,60.426 48.767,60.328 48.583 C 60.157 48.263,60.009 48.014,58.931 46.223 C 58.664 45.780,58.402 45.379,58.348 45.333 C 58.294 45.288,58.025 44.819,57.750 44.292 C 57.475 43.765,57.194 43.334,57.125 43.334 C 57.056 43.334,57.000 43.240,57.000 43.125 C 57.000 43.010,56.626 42.333,56.169 41.620 C 55.712 40.907,54.911 39.594,54.389 38.703 C 53.867 37.812,53.378 37.058,53.303 37.028 C 53.228 36.997,53.163 36.885,53.160 36.778 C 53.156 36.671,52.815 36.058,52.403 35.417 C 51.991 34.775,51.566 34.044,51.457 33.792 C 51.349 33.540,51.202 33.333,51.130 33.333 C 51.059 33.333,51.000 33.262,51.000 33.174 C 51.000 33.036,50.422 32.075,50.043 31.583 C 49.972 31.492,49.822 31.229,49.708 31.000 C 49.595 30.771,49.408 30.434,49.293 30.252 C 49.178 30.069,48.840 29.536,48.542 29.068 C 48.244 28.599,48.000 28.130,48.000 28.024 C 48.000 27.919,47.934 27.833,47.853 27.833 C 47.772 27.833,47.657 27.702,47.599 27.542 C 47.540 27.381,47.325 26.978,47.121 26.646 C 46.917 26.314,46.525 25.657,46.250 25.188 C 45.975 24.718,45.694 24.334,45.625 24.334 C 45.556 24.333,45.500 24.257,45.500 24.163 C 45.500 24.018,45.151 23.393,43.781 21.083 C 43.672 20.900,43.539 20.712,43.484 20.667 C 43.429 20.621,43.279 20.381,43.151 20.133 C 43.022 19.885,42.429 18.888,41.833 17.917 C 41.237 16.945,40.645 15.948,40.516 15.700 C 40.387 15.453,40.237 15.213,40.183 15.167 C 40.013 15.024,39.493 14.106,39.309 13.625 C 39.213 13.373,39.084 13.167,39.022 13.167 C 38.960 13.167,38.725 12.829,38.500 12.417 C 38.275 12.004,38.032 11.667,37.962 11.667 C 37.891 11.667,37.833 11.580,37.833 11.473 C 37.833 11.302,37.032 9.894,35.871 8.026 C 35.663 7.691,35.444 7.304,35.384 7.167 C 35.324 7.029,35.231 6.879,35.179 6.833 C 35.068 6.737,34.956 6.554,33.898 4.750 C 33.468 4.017,33.053 3.392,32.975 3.361 C 32.897 3.331,32.833 3.235,32.833 3.149 C 32.833 2.918,31.330 0.372,31.063 0.150 C 30.868 -0.012,30.833 2.786,30.833 18.567 M398.912 58.583 C 398.912 64.267,398.933 66.616,398.958 63.804 C 398.984 60.992,398.984 56.342,398.958 53.470 C 398.933 50.599,398.912 52.900,398.912 58.583 M60.303 57.327 C 59.782 57.681,59.201 58.019,59.012 58.079 C 58.823 58.139,58.571 58.277,58.452 58.386 C 58.122 58.687,57.632 58.991,57.125 59.209 C 56.873 59.318,56.667 59.465,56.667 59.537 C 56.667 59.608,56.564 59.667,56.439 59.667 C 56.314 59.667,56.033 59.804,55.814 59.972 C 55.596 60.140,55.079 60.459,54.667 60.680 C 54.254 60.902,53.818 61.177,53.696 61.292 C 53.575 61.406,53.369 61.500,53.238 61.500 C 53.107 61.500,53.000 61.556,53.000 61.625 C 53.000 61.694,52.644 61.935,52.208 62.161 C 51.773 62.386,50.935 62.874,50.347 63.244 C 49.759 63.614,49.215 63.898,49.139 63.875 C 49.062 63.852,49.000 63.908,49.000 64.000 C 49.000 64.092,48.929 64.167,48.842 64.167 C 48.755 64.167,48.361 64.379,47.967 64.639 C 47.573 64.898,47.006 65.207,46.708 65.326 C 46.410 65.444,46.167 65.606,46.167 65.687 C 46.167 65.767,46.086 65.833,45.987 65.833 C 45.888 65.833,45.411 66.096,44.928 66.417 C 44.444 66.737,44.004 67.000,43.949 67.000 C 43.895 67.000,43.528 67.213,43.133 67.474 C 42.739 67.735,42.079 68.129,41.667 68.349 C 41.254 68.570,40.879 68.794,40.833 68.848 C 40.742 68.956,39.165 69.871,38.500 70.202 C 38.271 70.316,38.046 70.455,38.000 70.510 C 37.954 70.565,37.673 70.716,37.375 70.846 C 37.077 70.975,36.833 71.138,36.833 71.207 C 36.833 71.277,36.745 71.333,36.638 71.333 C 36.531 71.333,36.325 71.435,36.180 71.560 C 36.035 71.685,35.470 72.028,34.923 72.324 C 34.377 72.619,33.739 72.986,33.506 73.139 C 32.647 73.702,32.406 73.845,31.917 74.084 C 30.730 74.663,30.833 73.374,30.833 87.600 L 30.833 100.413 31.250 99.964 C 31.479 99.717,31.667 99.471,31.667 99.417 C 31.667 99.363,31.741 99.229,31.832 99.118 C 32.383 98.447,33.333 97.163,33.333 97.090 C 33.333 97.042,33.577 96.676,33.875 96.276 C 34.173 95.877,34.529 95.379,34.667 95.171 C 34.804 94.963,34.992 94.708,35.083 94.605 C 35.175 94.501,35.475 94.079,35.750 93.667 C 36.024 93.254,36.289 92.879,36.339 92.833 C 36.388 92.787,37.245 91.587,38.243 90.167 C 39.241 88.746,40.119 87.558,40.195 87.528 C 40.271 87.497,40.333 87.383,40.333 87.273 C 40.333 87.164,40.465 86.957,40.625 86.813 C 40.785 86.669,41.008 86.409,41.120 86.234 C 41.232 86.060,41.590 85.542,41.917 85.083 C 42.243 84.625,42.554 84.119,42.608 83.958 C 42.661 83.798,42.758 83.667,42.823 83.667 C 42.966 83.667,43.833 82.365,43.833 82.152 C 43.833 82.068,43.902 82.000,43.986 82.000 C 44.071 82.000,44.312 81.719,44.523 81.375 C 44.857 80.830,45.723 79.601,46.145 79.074 C 46.222 78.978,46.502 78.565,46.766 78.158 C 47.030 77.750,47.292 77.379,47.347 77.333 C 47.402 77.287,47.722 76.856,48.057 76.375 C 48.392 75.894,48.941 75.106,49.277 74.625 C 49.612 74.144,49.949 73.725,50.027 73.694 C 50.104 73.664,50.167 73.551,50.167 73.444 C 50.167 73.337,50.336 73.051,50.542 72.807 C 50.748 72.564,51.029 72.199,51.167 71.996 C 51.304 71.794,51.642 71.316,51.917 70.935 C 52.192 70.553,52.492 70.120,52.583 69.973 C 52.675 69.825,52.943 69.452,53.179 69.144 C 53.415 68.836,54.164 67.796,54.844 66.833 C 55.523 65.871,56.137 65.058,56.206 65.028 C 56.276 64.997,56.333 64.864,56.333 64.731 C 56.333 64.598,56.446 64.446,56.583 64.394 C 56.721 64.341,56.833 64.220,56.833 64.124 C 56.833 64.029,57.096 63.631,57.417 63.239 C 57.737 62.848,58.000 62.458,58.000 62.373 C 58.000 62.288,58.150 62.083,58.333 61.917 C 58.517 61.751,58.667 61.546,58.667 61.462 C 58.667 61.378,58.760 61.212,58.875 61.092 C 58.990 60.972,59.196 60.705,59.333 60.497 C 59.471 60.290,59.752 59.914,59.958 59.661 C 60.165 59.409,60.333 59.153,60.333 59.094 C 60.333 59.035,60.409 58.895,60.502 58.785 C 62.226 56.733,62.137 56.082,60.303 57.327 " stroke="none" fill="#ffffff" fill-rule="evenodd"></path></g></svg>