<svg id="svg" xmlns="http://www.w3.org/2000/svg" xmlns:xlink="http://www.w3.org/1999/xlink" width="400" height="74.8" viewBox="0, 0, 400,74.8" version="1.1"><g id="svgg"><path id="path0" d="M15.931 0.125 C 15.862 0.194,15.718 0.253,15.611 0.258 C 15.504 0.262,15.435 0.355,15.458 0.466 C 15.481 0.576,15.406 0.667,15.290 0.667 C 15.175 0.667,14.987 0.817,14.872 1.000 C 14.758 1.183,14.548 1.333,14.405 1.333 C 14.263 1.333,14.185 1.395,14.232 1.470 C 14.326 1.623,13.754 2.167,13.498 2.167 C 13.407 2.167,13.333 2.243,13.333 2.336 C 13.333 2.552,11.715 4.167,11.498 4.167 C 11.407 4.167,11.333 4.243,11.333 4.336 C 11.333 4.552,9.715 6.167,9.498 6.167 C 9.407 6.167,9.333 6.243,9.333 6.336 C 9.333 6.552,7.715 8.167,7.498 8.167 C 7.407 8.167,7.333 8.243,7.333 8.336 C 7.333 8.552,5.715 10.167,5.498 10.167 C 5.407 10.167,5.333 10.245,5.333 10.341 C 5.333 10.437,5.149 10.699,4.924 10.924 C 4.699 11.149,4.437 11.333,4.341 11.333 C 4.245 11.333,4.167 11.414,4.167 11.512 C 4.167 11.610,4.060 11.798,3.929 11.929 C 3.798 12.060,3.610 12.167,3.512 12.167 C 3.414 12.167,3.333 12.245,3.333 12.341 C 3.333 12.567,2.567 13.333,2.341 13.333 C 2.245 13.333,2.167 13.414,2.167 13.512 C 2.167 13.706,1.756 14.167,1.583 14.167 C 1.444 14.167,1.000 14.611,1.000 14.750 C 1.000 14.914,0.544 15.333,0.365 15.333 C 0.121 15.333,0.005 15.962,0.002 17.292 C 0.000 18.390,0.030 18.500,0.333 18.500 C 0.519 18.500,0.667 18.611,0.667 18.750 C 0.667 18.971,3.800 19.000,27.875 18.997 C 44.784 18.996,54.990 18.936,54.837 18.839 C 54.636 18.712,54.667 18.654,55.004 18.519 L 55.417 18.354 54.981 18.344 C 54.741 18.338,54.291 18.110,53.981 17.836 C 53.671 17.562,53.322 17.337,53.206 17.336 C 53.090 17.335,52.831 17.240,52.629 17.125 C 52.271 16.921,52.101 16.798,51.596 16.375 C 51.459 16.260,51.194 16.167,51.007 16.167 C 50.820 16.167,50.667 16.092,50.667 16.000 C 50.667 15.908,50.479 15.833,50.250 15.833 C 49.991 15.833,49.833 15.739,49.833 15.583 C 49.833 15.428,49.676 15.333,49.417 15.333 C 49.188 15.333,49.000 15.258,49.000 15.167 C 49.000 15.075,48.845 15.000,48.655 15.000 C 48.465 15.000,48.205 14.906,48.077 14.792 C 47.484 14.260,47.325 14.167,47.007 14.167 C 46.820 14.167,46.667 14.092,46.667 14.000 C 46.667 13.908,46.479 13.833,46.250 13.833 C 45.991 13.833,45.833 13.739,45.833 13.583 C 45.833 13.428,45.676 13.333,45.417 13.333 C 45.188 13.333,45.000 13.258,45.000 13.167 C 45.000 13.075,44.905 13.000,44.790 13.000 C 44.674 13.000,44.378 12.812,44.131 12.583 C 43.883 12.354,43.528 12.167,43.341 12.167 C 43.153 12.167,43.000 12.092,43.000 12.000 C 43.000 11.908,42.813 11.833,42.583 11.833 C 42.324 11.833,42.167 11.739,42.167 11.583 C 42.167 11.444,42.019 11.333,41.833 11.333 C 41.650 11.333,41.500 11.258,41.500 11.167 C 41.500 11.075,41.313 11.000,41.083 11.000 C 40.854 11.000,40.667 10.933,40.667 10.851 C 40.667 10.770,40.479 10.656,40.250 10.598 C 40.021 10.541,39.833 10.420,39.833 10.330 C 39.833 10.240,39.646 10.167,39.417 10.167 C 39.188 10.167,39.000 10.092,39.000 10.000 C 39.000 9.908,38.813 9.833,38.583 9.833 C 38.324 9.833,38.167 9.739,38.167 9.583 C 38.167 9.444,38.019 9.333,37.833 9.333 C 37.650 9.333,37.500 9.258,37.500 9.167 C 37.500 9.075,37.313 9.000,37.083 9.000 C 36.854 9.000,36.667 8.925,36.667 8.833 C 36.667 8.742,36.479 8.667,36.250 8.667 C 36.017 8.667,35.833 8.570,35.833 8.448 C 35.833 8.327,35.571 8.126,35.250 8.000 C 34.929 7.874,34.667 7.673,34.667 7.552 C 34.667 7.430,34.483 7.333,34.250 7.333 C 34.021 7.333,33.833 7.258,33.833 7.167 C 33.833 7.075,33.646 7.000,33.417 7.000 C 33.188 7.000,33.000 6.925,33.000 6.833 C 33.000 6.742,32.813 6.667,32.583 6.667 C 32.324 6.667,32.167 6.572,32.167 6.417 C 32.167 6.278,32.019 6.167,31.833 6.167 C 31.650 6.167,31.500 6.092,31.500 6.000 C 31.500 5.908,31.313 5.833,31.083 5.833 C 30.824 5.833,30.667 5.739,30.667 5.583 C 30.667 5.428,30.509 5.333,30.250 5.333 C 30.021 5.333,29.833 5.258,29.833 5.167 C 29.833 5.075,29.646 5.000,29.417 5.000 C 29.188 5.000,29.000 4.925,29.000 4.833 C 29.000 4.742,28.813 4.667,28.583 4.667 C 28.324 4.667,28.167 4.572,28.167 4.417 C 28.167 4.278,28.019 4.167,27.833 4.167 C 27.650 4.167,27.500 4.109,27.500 4.040 C 27.500 3.912,27.006 3.611,26.458 3.404 C 26.298 3.344,26.167 3.228,26.167 3.147 C 26.167 3.066,26.017 3.000,25.833 3.000 C 25.650 3.000,25.500 2.925,25.500 2.833 C 25.500 2.742,25.313 2.667,25.083 2.667 C 24.824 2.667,24.667 2.572,24.667 2.417 C 24.667 2.261,24.509 2.167,24.250 2.167 C 24.021 2.167,23.833 2.092,23.833 2.000 C 23.833 1.908,23.646 1.833,23.417 1.833 C 23.188 1.833,23.000 1.760,23.000 1.670 C 23.000 1.580,22.813 1.459,22.583 1.402 C 22.354 1.344,22.167 1.230,22.167 1.149 C 22.167 1.067,22.017 1.000,21.833 1.000 C 21.650 1.000,21.500 0.925,21.500 0.833 C 21.500 0.742,21.313 0.667,21.083 0.667 C 20.840 0.667,20.667 0.571,20.667 0.436 C 20.667 0.034,16.308 -0.253,15.931 0.125 M132.907 18.745 C 132.729 18.879,132.302 18.992,131.958 18.995 C 131.615 18.998,131.333 19.075,131.333 19.167 C 131.333 19.258,131.106 19.333,130.828 19.333 C 130.533 19.333,130.283 19.437,130.227 19.583 C 130.174 19.721,129.989 19.833,129.816 19.833 C 129.642 19.833,129.500 19.908,129.500 20.000 C 129.500 20.092,129.387 20.167,129.250 20.167 C 129.112 20.167,129.000 20.242,129.000 20.333 C 129.000 20.425,128.890 20.500,128.755 20.500 C 128.365 20.500,125.833 23.087,125.833 23.485 C 125.833 23.677,125.740 23.834,125.625 23.835 C 125.389 23.836,125.000 24.581,125.000 25.033 C 125.000 25.198,124.925 25.333,124.833 25.333 C 124.742 25.333,124.667 25.513,124.667 25.732 C 124.667 25.952,124.554 26.174,124.417 26.227 C 124.236 26.296,124.167 26.579,124.167 27.245 C 124.167 27.752,124.092 28.167,124.000 28.167 C 123.899 28.167,123.833 28.861,123.833 29.917 C 123.833 30.972,123.899 31.667,124.000 31.667 C 124.092 31.667,124.167 32.082,124.167 32.589 C 124.167 33.254,124.236 33.537,124.417 33.606 C 124.554 33.659,124.667 33.882,124.667 34.101 C 124.667 34.321,124.742 34.500,124.833 34.500 C 124.925 34.500,125.000 34.688,125.000 34.917 C 125.000 35.146,125.075 35.333,125.167 35.333 C 125.258 35.333,125.333 35.486,125.333 35.672 C 125.333 35.858,125.433 36.049,125.555 36.096 C 125.677 36.142,125.878 36.440,126.003 36.757 C 126.127 37.074,126.295 37.333,126.376 37.333 C 126.546 37.333,127.000 37.758,127.000 37.917 C 127.000 38.054,127.443 38.500,127.579 38.500 C 127.636 38.500,127.856 38.688,128.069 38.917 C 128.281 39.146,128.578 39.333,128.727 39.333 C 128.877 39.333,129.000 39.408,129.000 39.500 C 129.000 39.592,129.112 39.667,129.250 39.667 C 129.387 39.667,129.500 39.727,129.500 39.801 C 129.500 39.956,130.663 40.497,131.014 40.505 C 131.144 40.508,131.396 40.621,131.574 40.755 C 131.751 40.890,132.141 41.000,132.439 41.000 C 132.737 41.000,133.027 41.075,133.083 41.167 C 133.150 41.275,136.418 41.333,142.343 41.333 C 148.337 41.333,151.500 41.391,151.500 41.500 C 151.500 41.592,151.642 41.667,151.816 41.667 C 151.989 41.667,152.174 41.779,152.227 41.917 C 152.280 42.054,152.432 42.167,152.565 42.167 C 152.697 42.167,152.968 42.429,153.167 42.750 C 153.365 43.071,153.596 43.333,153.680 43.333 C 153.960 43.333,153.867 46.118,153.583 46.227 C 153.446 46.280,153.333 46.448,153.333 46.600 C 153.333 46.946,152.517 47.666,152.125 47.666 C 151.965 47.667,151.833 47.779,151.833 47.917 C 151.833 48.136,150.615 48.167,141.867 48.167 C 131.285 48.167,131.234 48.170,130.812 48.958 C 130.701 49.165,130.543 49.333,130.460 49.333 C 130.252 49.333,129.833 49.771,129.833 49.988 C 129.833 50.086,129.683 50.167,129.500 50.167 C 129.317 50.167,129.167 50.242,129.167 50.333 C 129.167 50.425,129.054 50.500,128.917 50.500 C 128.779 50.500,128.667 50.612,128.667 50.750 C 128.667 50.887,128.590 51.000,128.496 51.000 C 128.403 51.000,127.907 51.413,127.395 51.917 C 126.882 52.421,126.400 52.833,126.323 52.833 C 125.376 52.833,124.959 55.084,125.776 55.786 L 126.219 56.167 139.531 56.167 C 151.211 56.167,152.856 56.136,152.940 55.917 C 153.005 55.747,153.271 55.667,153.768 55.667 C 154.171 55.667,154.500 55.592,154.500 55.500 C 154.500 55.408,154.688 55.333,154.917 55.333 C 155.176 55.333,155.333 55.239,155.333 55.083 C 155.333 54.928,155.491 54.833,155.750 54.833 C 155.979 54.833,156.167 54.758,156.167 54.667 C 156.167 54.575,156.322 54.500,156.512 54.500 C 156.881 54.500,157.333 54.139,157.333 53.845 C 157.333 53.747,157.435 53.667,157.559 53.667 C 157.683 53.667,157.987 53.479,158.234 53.250 C 158.482 53.021,158.728 52.833,158.782 52.833 C 158.961 52.833,159.323 52.254,159.328 51.958 C 159.331 51.798,159.414 51.667,159.512 51.667 C 159.806 51.667,160.167 51.214,160.167 50.845 C 160.167 50.649,160.275 50.500,160.417 50.500 C 160.572 50.500,160.667 50.343,160.667 50.083 C 160.667 49.854,160.742 49.667,160.833 49.667 C 160.925 49.667,161.000 49.479,161.000 49.250 C 161.000 49.021,161.075 48.833,161.167 48.833 C 161.258 48.833,161.333 48.579,161.333 48.268 C 161.333 47.919,161.429 47.666,161.583 47.606 C 161.953 47.465,161.953 42.310,161.583 41.940 C 161.446 41.803,161.333 41.423,161.333 41.095 C 161.333 40.768,161.258 40.500,161.167 40.500 C 161.075 40.500,161.000 40.313,161.000 40.083 C 161.000 39.854,160.925 39.667,160.833 39.667 C 160.742 39.667,160.667 39.517,160.667 39.333 C 160.667 39.148,160.556 39.000,160.417 39.000 C 160.276 39.000,160.167 38.851,160.167 38.659 C 160.167 38.471,159.830 37.965,159.418 37.534 C 159.006 37.103,158.612 36.689,158.543 36.615 C 157.895 35.919,156.715 35.000,156.471 35.000 C 156.304 35.000,156.167 34.887,156.167 34.750 C 156.167 34.594,156.009 34.500,155.750 34.500 C 155.521 34.500,155.333 34.425,155.333 34.333 C 155.333 34.242,155.079 34.167,154.768 34.167 C 154.419 34.167,154.166 34.071,154.106 33.917 C 154.041 33.745,153.773 33.667,153.255 33.667 C 152.840 33.667,152.500 33.592,152.500 33.500 C 152.500 33.391,149.333 33.333,143.333 33.333 C 137.333 33.333,134.167 33.276,134.167 33.167 C 134.167 33.075,133.979 33.000,133.750 33.000 C 133.521 33.000,133.332 32.906,133.330 32.792 C 133.328 32.677,133.065 32.359,132.746 32.085 C 132.428 31.811,132.167 31.455,132.167 31.293 C 132.167 31.132,132.092 31.000,132.000 31.000 C 131.907 31.000,131.833 30.556,131.833 30.000 C 131.833 29.444,131.907 29.000,132.000 29.000 C 132.092 29.000,132.167 28.853,132.167 28.673 C 132.167 28.281,133.378 27.000,133.749 27.000 C 133.893 27.000,134.054 26.887,134.106 26.750 C 134.190 26.532,135.465 26.500,144.184 26.500 C 150.728 26.500,154.167 26.443,154.167 26.333 C 154.167 26.242,154.247 26.167,154.345 26.167 C 154.571 26.167,155.000 25.745,155.000 25.523 C 155.000 25.431,155.141 25.311,155.314 25.256 C 155.487 25.201,155.861 24.934,156.146 24.662 C 156.431 24.389,156.727 24.167,156.804 24.167 C 156.881 24.167,157.044 23.979,157.167 23.750 C 157.289 23.521,157.457 23.333,157.540 23.333 C 157.748 23.333,158.167 22.896,158.167 22.679 C 158.167 22.580,158.245 22.500,158.341 22.500 C 158.567 22.500,159.333 21.734,159.333 21.508 C 159.333 21.412,159.427 21.333,159.542 21.332 C 159.965 21.329,160.358 19.971,160.000 19.750 C 159.908 19.693,159.833 19.501,159.833 19.323 C 159.833 19.146,159.721 19.000,159.583 19.000 C 159.446 19.000,159.333 18.887,159.333 18.750 C 159.333 18.376,133.402 18.371,132.907 18.745 M177.394 18.750 C 177.334 18.904,177.081 19.000,176.732 19.000 C 176.421 19.000,176.167 19.075,176.167 19.167 C 176.167 19.258,176.051 19.333,175.909 19.333 C 175.767 19.333,175.486 19.506,175.284 19.717 C 175.082 19.929,174.673 20.271,174.375 20.479 C 174.077 20.686,173.833 20.963,173.833 21.095 C 173.833 21.226,173.721 21.333,173.583 21.333 C 173.446 21.333,173.333 21.446,173.333 21.583 C 173.333 21.721,173.258 21.833,173.167 21.833 C 173.075 21.833,173.000 21.983,173.000 22.167 C 173.000 22.350,172.925 22.500,172.833 22.500 C 172.742 22.500,172.667 22.800,172.667 23.167 C 172.667 23.648,172.597 23.833,172.417 23.833 C 172.197 23.833,172.167 25.444,172.167 37.333 C 172.167 49.222,172.197 50.833,172.417 50.833 C 172.597 50.833,172.667 51.019,172.667 51.500 C 172.667 51.867,172.742 52.167,172.833 52.167 C 172.925 52.167,173.000 52.289,173.000 52.439 C 173.000 52.589,173.173 52.872,173.384 53.068 C 173.596 53.264,173.819 53.555,173.880 53.716 C 173.942 53.876,174.125 54.058,174.288 54.119 C 174.450 54.180,174.826 54.479,175.122 54.782 C 175.418 55.085,175.775 55.333,175.914 55.333 C 176.053 55.333,176.167 55.408,176.167 55.500 C 176.167 55.592,176.420 55.667,176.730 55.667 C 177.039 55.667,177.386 55.779,177.500 55.917 C 177.810 56.290,205.099 56.296,205.593 55.922 C 205.771 55.787,206.160 55.675,206.458 55.672 C 206.756 55.669,207.000 55.592,207.000 55.500 C 207.000 55.408,207.139 55.333,207.310 55.333 C 207.480 55.333,207.761 55.146,207.933 54.917 C 208.105 54.688,208.308 54.500,208.385 54.500 C 208.548 54.500,209.000 54.072,209.000 53.917 C 209.000 53.744,209.461 53.333,209.655 53.333 C 209.753 53.333,209.833 53.221,209.833 53.083 C 209.833 52.946,209.908 52.833,210.000 52.833 C 210.092 52.833,210.167 52.693,210.167 52.520 C 210.167 52.348,210.279 52.114,210.417 52.000 C 210.554 51.886,210.667 51.577,210.667 51.313 C 210.667 51.049,210.742 50.833,210.833 50.833 C 210.943 50.833,211.000 46.222,211.000 37.333 C 211.000 28.444,210.943 23.833,210.833 23.833 C 210.742 23.833,210.667 23.614,210.667 23.345 C 210.667 23.077,210.554 22.745,210.417 22.607 C 210.279 22.470,210.167 22.239,210.167 22.095 C 210.167 21.951,210.092 21.833,210.000 21.833 C 209.908 21.833,209.833 21.721,209.833 21.583 C 209.833 21.446,209.753 21.333,209.655 21.333 C 209.461 21.333,209.000 20.923,209.000 20.750 C 209.000 20.595,208.548 20.167,208.385 20.167 C 208.308 20.167,208.105 19.979,207.933 19.750 C 207.761 19.521,207.480 19.333,207.310 19.333 C 207.139 19.333,207.000 19.258,207.000 19.167 C 207.000 19.075,206.746 19.000,206.434 19.000 C 206.086 19.000,205.832 18.904,205.773 18.750 C 205.689 18.531,203.957 18.500,191.583 18.500 C 179.209 18.500,177.478 18.531,177.394 18.750 M222.192 18.811 L 221.833 19.122 221.833 37.309 C 221.833 54.278,221.853 55.519,222.120 55.831 C 222.404 56.163,222.586 56.167,237.014 56.167 L 251.620 56.167 251.933 55.750 C 252.105 55.521,252.340 55.333,252.456 55.333 C 252.572 55.333,252.667 55.259,252.667 55.169 C 252.667 55.078,253.379 54.292,254.250 53.421 L 255.833 51.838 255.833 50.752 C 255.833 49.898,255.780 49.667,255.583 49.667 C 255.446 49.667,255.333 49.592,255.333 49.500 C 255.333 49.390,251.051 49.333,242.821 49.333 L 230.308 49.333 229.821 48.846 L 229.333 48.359 229.333 33.741 L 229.333 19.122 228.974 18.811 C 228.430 18.339,222.736 18.339,222.192 18.811 M269.773 18.750 C 269.717 18.896,269.467 19.000,269.172 19.000 C 268.894 19.000,268.667 19.075,268.667 19.167 C 268.667 19.258,268.479 19.333,268.250 19.333 C 267.991 19.333,267.833 19.428,267.833 19.583 C 267.833 19.724,267.684 19.833,267.493 19.833 C 267.048 19.833,265.833 21.043,265.833 21.487 C 265.833 21.677,265.748 21.833,265.643 21.833 C 265.343 21.833,265.011 22.375,265.005 22.875 C 265.002 23.127,264.925 23.333,264.833 23.333 C 264.497 23.333,264.616 55.437,264.954 55.831 C 265.378 56.327,271.240 56.348,271.808 55.855 C 272.164 55.547,272.167 55.491,272.167 49.022 C 272.167 45.295,272.231 42.500,272.316 42.500 C 272.398 42.500,272.642 42.314,272.858 42.086 L 273.250 41.672 283.708 41.670 C 292.895 41.667,294.167 41.697,294.167 41.917 C 294.167 42.054,294.247 42.167,294.345 42.167 C 294.973 42.167,295.000 42.448,295.000 49.086 L 295.000 55.530 295.375 55.843 C 295.888 56.271,301.945 56.337,302.106 55.917 C 302.159 55.779,302.307 55.667,302.434 55.667 C 302.799 55.667,302.781 23.533,302.417 23.394 C 302.279 23.341,302.164 23.099,302.161 22.857 C 302.156 22.372,301.820 21.833,301.523 21.833 C 301.419 21.833,301.333 21.675,301.333 21.480 C 301.333 21.023,300.144 19.833,299.686 19.833 C 299.484 19.833,299.333 19.727,299.333 19.583 C 299.333 19.444,299.185 19.333,299.000 19.333 C 298.817 19.333,298.667 19.258,298.667 19.167 C 298.667 19.075,298.474 19.000,298.238 19.000 C 298.002 19.000,297.697 18.887,297.560 18.750 C 297.341 18.532,295.563 18.500,283.589 18.500 C 271.547 18.500,269.857 18.531,269.773 18.750 M313.423 18.957 L 313.000 19.413 313.000 37.410 L 313.000 55.406 313.443 55.786 C 314.011 56.275,320.167 56.394,320.167 55.917 C 320.167 55.779,320.252 55.667,320.357 55.667 C 320.977 55.667,320.989 55.439,320.995 43.280 C 320.999 33.277,321.036 31.440,321.238 31.238 C 321.510 30.966,322.167 30.916,322.167 31.167 C 322.167 31.258,322.252 31.333,322.357 31.333 C 322.582 31.333,322.987 31.832,322.995 32.118 C 323.001 32.369,324.257 33.667,324.493 33.667 C 324.589 33.667,324.667 33.779,324.667 33.917 C 324.667 34.054,324.725 34.167,324.797 34.167 C 324.869 34.167,325.070 34.410,325.244 34.708 C 325.418 35.006,325.696 35.371,325.863 35.520 C 326.030 35.668,326.167 35.874,326.167 35.978 C 326.167 36.082,326.247 36.167,326.345 36.167 C 326.558 36.167,327.000 36.584,327.000 36.785 C 327.000 36.863,327.155 37.037,327.344 37.172 C 327.533 37.306,327.804 37.660,327.946 37.958 C 328.088 38.256,328.309 38.500,328.436 38.500 C 328.563 38.500,328.667 38.556,328.667 38.625 C 328.667 38.838,329.445 39.667,329.644 39.667 C 329.748 39.667,329.833 39.779,329.833 39.917 C 329.833 40.054,329.908 40.167,330.000 40.167 C 330.092 40.167,330.167 40.282,330.167 40.422 C 330.167 40.562,330.279 40.720,330.417 40.773 C 330.554 40.826,330.667 40.941,330.667 41.029 C 330.667 41.117,331.117 41.635,331.667 42.180 C 332.217 42.725,332.667 43.252,332.667 43.352 C 332.667 43.452,333.004 43.876,333.417 44.294 C 333.829 44.713,334.167 45.118,334.167 45.194 C 334.167 45.271,334.247 45.333,334.345 45.333 C 334.602 45.333,335.000 45.768,335.000 46.048 C 335.000 46.179,335.188 46.427,335.417 46.600 C 335.646 46.772,335.833 46.975,335.833 47.051 C 335.833 47.250,336.277 47.667,336.488 47.667 C 336.586 47.667,336.667 47.745,336.667 47.841 C 336.667 47.937,336.854 48.203,337.083 48.432 C 337.313 48.661,337.500 48.915,337.500 48.997 C 337.500 49.078,337.912 49.564,338.417 50.076 C 338.921 50.588,339.333 51.081,339.333 51.170 C 339.333 51.260,339.446 51.333,339.583 51.333 C 339.721 51.333,339.833 51.439,339.833 51.569 C 339.833 51.699,340.096 52.075,340.417 52.405 C 340.737 52.736,341.000 53.048,341.000 53.098 C 341.000 53.259,341.469 53.667,341.655 53.667 C 341.753 53.667,341.833 53.747,341.833 53.845 C 341.833 53.943,341.927 54.128,342.042 54.256 C 342.485 54.750,342.667 54.989,342.667 55.078 C 342.667 55.128,342.881 55.394,343.143 55.668 L 343.619 56.167 347.048 56.167 C 350.631 56.167,350.485 56.193,351.125 55.429 C 351.289 55.234,351.333 51.369,351.333 37.339 L 351.333 19.497 350.889 18.999 L 350.445 18.500 347.449 18.500 L 344.453 18.500 343.935 19.042 L 343.417 19.583 343.372 31.875 L 343.327 44.167 342.747 44.167 C 342.428 44.167,342.167 44.086,342.167 43.988 C 342.167 43.794,341.756 43.333,341.583 43.333 C 341.395 43.333,341.000 42.865,340.996 42.637 C 340.990 42.362,339.757 41.000,339.513 41.000 C 339.414 41.000,339.333 40.887,339.333 40.750 C 339.333 40.612,339.258 40.500,339.167 40.500 C 339.075 40.500,339.000 40.403,339.000 40.285 C 339.000 40.166,338.737 39.791,338.417 39.451 C 338.096 39.111,337.833 38.758,337.833 38.666 C 337.833 38.575,337.753 38.500,337.655 38.500 C 337.444 38.500,337.000 38.084,337.000 37.885 C 337.000 37.809,336.813 37.544,336.583 37.297 C 336.354 37.050,336.167 36.802,336.167 36.745 C 336.167 36.576,335.704 36.167,335.512 36.167 C 335.414 36.167,335.333 36.088,335.333 35.992 C 335.333 35.897,335.146 35.631,334.917 35.402 C 334.688 35.172,334.500 34.912,334.500 34.822 C 334.500 34.733,334.087 34.240,333.583 33.728 C 333.079 33.216,332.667 32.733,332.667 32.656 C 332.667 32.578,332.479 32.328,332.250 32.098 C 332.021 31.869,331.833 31.603,331.833 31.508 C 331.833 31.412,331.753 31.333,331.655 31.333 C 331.461 31.333,331.000 30.923,331.000 30.750 C 331.000 30.691,330.906 30.538,330.792 30.411 C 330.339 29.906,330.167 29.676,330.167 29.578 C 330.167 29.409,329.703 29.000,329.512 29.000 C 329.414 29.000,329.333 28.922,329.333 28.826 C 329.333 28.730,329.146 28.464,328.917 28.235 C 328.688 28.006,328.500 27.752,328.500 27.670 C 328.500 27.589,328.087 27.103,327.583 26.591 C 327.079 26.078,326.667 25.598,326.667 25.522 C 326.667 25.447,326.479 25.167,326.250 24.901 C 326.021 24.635,325.834 24.360,325.834 24.292 C 325.833 24.223,325.753 24.167,325.655 24.167 C 325.463 24.167,325.000 23.757,325.000 23.588 C 325.000 23.490,324.828 23.261,324.375 22.756 C 324.260 22.628,324.167 22.476,324.167 22.417 C 324.167 22.244,323.706 21.833,323.512 21.833 C 323.414 21.833,323.333 21.759,323.333 21.667 C 323.333 21.576,323.071 21.222,322.750 20.882 C 322.429 20.542,322.167 20.201,322.167 20.124 C 322.167 20.047,321.837 19.650,321.435 19.242 L 320.703 18.500 317.275 18.500 L 313.847 18.500 313.423 18.957 M367.060 18.750 C 367.001 18.904,366.748 19.000,366.399 19.000 C 366.088 19.000,365.833 19.075,365.833 19.167 C 365.833 19.258,365.646 19.333,365.417 19.333 C 365.188 19.333,365.000 19.419,365.000 19.523 C 365.000 19.779,364.485 20.155,364.125 20.161 C 363.965 20.164,363.833 20.245,363.833 20.341 C 363.833 20.437,363.646 20.703,363.417 20.932 C 363.188 21.161,363.000 21.458,363.000 21.591 C 363.000 21.724,362.925 21.833,362.833 21.833 C 362.742 21.833,362.667 21.975,362.667 22.149 C 362.667 22.322,362.554 22.508,362.417 22.560 C 362.279 22.613,362.167 22.804,362.167 22.985 C 362.167 23.166,362.092 23.360,362.000 23.417 C 361.891 23.484,361.833 29.037,361.833 39.532 L 361.833 55.544 362.192 55.855 C 362.760 56.348,368.622 56.327,369.046 55.831 C 369.307 55.527,369.333 54.915,369.333 49.165 C 369.333 43.648,369.365 42.833,369.583 42.833 C 369.721 42.833,369.833 42.722,369.833 42.585 C 369.833 41.633,369.419 41.667,381.120 41.667 C 388.627 41.667,391.833 41.720,391.833 41.845 C 391.833 42.076,392.257 42.500,392.488 42.500 C 392.612 42.500,392.667 44.495,392.667 49.022 C 392.667 55.491,392.670 55.547,393.026 55.855 C 393.584 56.340,399.568 56.330,399.827 55.844 C 400.016 55.492,400.079 23.914,399.893 22.792 C 399.832 22.424,399.696 22.167,399.562 22.167 C 399.436 22.167,399.333 22.026,399.333 21.854 C 399.333 21.412,397.786 19.833,397.353 19.833 C 397.159 19.833,396.999 19.740,396.999 19.625 C 396.997 19.386,396.250 19.000,395.788 19.000 C 395.617 19.000,395.364 18.887,395.226 18.750 C 395.008 18.532,393.208 18.500,381.066 18.500 C 368.856 18.500,367.144 18.531,367.060 18.750 M292.712 25.769 C 293.497 26.255,294.167 26.894,294.167 27.159 C 294.167 27.255,294.279 27.333,294.417 27.333 C 294.591 27.333,294.667 27.509,294.667 27.917 C 294.667 28.238,294.742 28.500,294.833 28.500 C 294.939 28.500,295.000 29.694,295.000 31.750 C 295.000 33.537,294.934 35.000,294.853 35.000 C 294.772 35.000,294.666 35.150,294.618 35.333 C 294.519 35.712,272.667 35.877,272.667 35.500 C 272.667 35.408,272.554 35.333,272.417 35.333 C 272.202 35.333,272.167 34.826,272.167 31.768 C 272.167 28.752,272.205 28.188,272.417 28.106 C 272.554 28.054,272.667 27.858,272.667 27.672 C 272.667 27.486,272.742 27.333,272.833 27.333 C 272.925 27.333,273.002 27.202,273.005 27.042 C 273.012 26.690,273.385 26.167,273.630 26.167 C 273.882 26.167,274.831 25.607,274.832 25.458 C 274.833 25.390,278.697 25.333,283.420 25.333 L 292.007 25.333 292.712 25.769 M389.833 25.489 C 389.833 25.574,389.996 25.696,390.195 25.759 C 390.879 25.976,392.167 27.434,392.167 27.992 C 392.167 28.332,392.249 28.500,392.417 28.500 C 392.630 28.500,392.667 28.972,392.667 31.750 C 392.667 34.406,392.625 35.000,392.436 35.000 C 392.309 35.000,392.166 35.150,392.118 35.333 C 392.032 35.662,391.891 35.667,381.100 35.667 C 370.350 35.667,370.166 35.661,369.961 35.333 C 369.847 35.150,369.659 35.000,369.543 35.000 C 369.205 35.000,369.244 29.024,369.583 28.894 C 369.728 28.838,369.833 28.589,369.833 28.305 C 369.833 27.498,370.978 26.021,371.808 25.758 C 372.005 25.695,372.167 25.574,372.167 25.489 C 372.167 25.395,375.648 25.333,381.000 25.333 C 386.352 25.333,389.833 25.395,389.833 25.489 M199.833 26.000 C 199.833 26.092,200.062 26.167,200.341 26.167 C 200.902 26.167,202.667 27.736,202.667 28.236 C 202.667 28.381,202.742 28.500,202.833 28.500 C 202.942 28.500,203.000 31.472,203.000 37.083 C 203.000 42.694,202.942 45.667,202.833 45.667 C 202.742 45.667,202.667 45.819,202.667 46.005 C 202.667 46.191,202.554 46.387,202.417 46.440 C 202.279 46.492,202.167 46.608,202.167 46.696 C 202.167 46.913,201.734 47.333,201.512 47.333 C 201.414 47.333,201.333 47.408,201.333 47.500 C 201.333 47.592,201.183 47.667,201.000 47.667 C 200.815 47.667,200.667 47.778,200.667 47.917 C 200.667 48.136,199.558 48.167,191.684 48.167 C 183.854 48.167,182.690 48.135,182.606 47.917 C 182.554 47.779,182.358 47.667,182.172 47.667 C 181.986 47.667,181.833 47.592,181.833 47.500 C 181.833 47.408,181.753 47.333,181.655 47.333 C 181.424 47.333,181.000 46.909,181.000 46.679 C 181.000 46.580,180.925 46.500,180.833 46.500 C 180.742 46.500,180.667 46.348,180.667 46.161 C 180.667 45.975,180.554 45.780,180.417 45.727 C 180.122 45.614,180.029 28.500,180.322 28.500 C 180.408 28.500,180.522 28.360,180.577 28.188 C 180.790 27.515,182.289 26.167,182.824 26.167 C 183.104 26.167,183.333 26.092,183.333 26.000 C 183.333 25.891,186.194 25.833,191.583 25.833 C 196.972 25.833,199.833 25.891,199.833 26.000 M0.452 27.852 C -0.106 28.489,-0.224 30.258,0.279 30.451 C 0.535 30.549,0.536 30.566,0.287 30.654 C 0.065 30.732,0.090 30.785,0.424 30.943 C 0.650 31.049,0.796 31.074,0.749 30.999 C 0.703 30.923,0.759 30.830,0.874 30.791 C 1.076 30.723,2.025 31.286,2.139 31.542 C 2.169 31.610,2.376 31.667,2.597 31.667 C 2.844 31.667,3.000 31.763,3.000 31.917 C 3.000 32.072,3.157 32.167,3.417 32.167 C 3.646 32.167,3.833 32.224,3.833 32.294 C 3.833 32.429,4.040 32.554,5.142 33.081 C 5.522 33.263,5.833 33.469,5.833 33.539 C 5.833 33.609,6.021 33.667,6.250 33.667 C 6.509 33.667,6.667 33.761,6.667 33.917 C 6.667 34.072,6.824 34.167,7.083 34.167 C 7.313 34.167,7.500 34.242,7.500 34.333 C 7.500 34.425,7.650 34.500,7.833 34.500 C 8.019 34.500,8.167 34.611,8.167 34.750 C 8.167 34.906,8.324 35.000,8.583 35.000 C 8.813 35.000,9.000 35.075,9.000 35.167 C 9.000 35.258,9.188 35.333,9.417 35.333 C 9.646 35.333,9.833 35.408,9.833 35.500 C 9.833 35.592,10.021 35.667,10.250 35.667 C 10.509 35.667,10.667 35.761,10.667 35.917 C 10.667 36.072,10.824 36.167,11.083 36.167 C 11.313 36.167,11.500 36.242,11.500 36.333 C 11.500 36.425,11.650 36.500,11.833 36.500 C 12.019 36.500,12.167 36.611,12.167 36.750 C 12.167 36.906,12.324 37.000,12.583 37.000 C 12.813 37.000,13.000 37.061,13.000 37.136 C 13.000 37.210,13.262 37.374,13.583 37.500 C 13.904 37.626,14.167 37.827,14.167 37.948 C 14.167 38.070,14.350 38.167,14.583 38.167 C 14.813 38.167,15.000 38.242,15.000 38.333 C 15.000 38.425,15.188 38.500,15.417 38.500 C 15.676 38.500,15.833 38.594,15.833 38.750 C 15.833 38.906,15.991 39.000,16.250 39.000 C 16.479 39.000,16.667 39.075,16.667 39.167 C 16.667 39.258,16.854 39.333,17.083 39.333 C 17.313 39.333,17.500 39.408,17.500 39.500 C 17.500 39.592,17.650 39.667,17.833 39.667 C 18.019 39.667,18.167 39.778,18.167 39.917 C 18.167 40.072,18.324 40.167,18.583 40.167 C 18.813 40.167,19.000 40.242,19.000 40.333 C 19.000 40.425,19.188 40.500,19.417 40.500 C 19.676 40.500,19.833 40.594,19.833 40.750 C 19.833 40.906,19.991 41.000,20.250 41.000 C 20.479 41.000,20.667 41.075,20.667 41.167 C 20.667 41.258,20.820 41.333,21.007 41.333 C 21.195 41.333,21.550 41.521,21.797 41.750 C 22.044 41.979,22.379 42.167,22.540 42.167 C 22.701 42.167,22.833 42.242,22.833 42.333 C 22.833 42.425,22.983 42.500,23.167 42.500 C 23.352 42.500,23.500 42.611,23.500 42.750 C 23.500 42.889,23.648 43.000,23.833 43.000 C 24.017 43.000,24.167 43.075,24.167 43.167 C 24.167 43.258,24.354 43.333,24.583 43.333 C 24.813 43.333,25.000 43.408,25.000 43.500 C 25.000 43.592,25.188 43.667,25.417 43.667 C 25.676 43.667,25.833 43.761,25.833 43.917 C 25.833 44.072,25.991 44.167,26.250 44.167 C 26.479 44.167,26.667 44.242,26.667 44.333 C 26.667 44.425,26.854 44.500,27.083 44.500 C 27.343 44.500,27.500 44.594,27.500 44.750 C 27.500 44.889,27.648 45.000,27.833 45.000 C 28.017 45.000,28.167 45.075,28.167 45.167 C 28.167 45.258,28.354 45.333,28.583 45.333 C 28.813 45.333,29.000 45.408,29.000 45.500 C 29.000 45.592,29.188 45.667,29.417 45.667 C 29.676 45.667,29.833 45.761,29.833 45.917 C 29.833 46.054,29.967 46.167,30.130 46.167 C 30.293 46.167,30.611 46.298,30.838 46.458 C 31.333 46.809,94.804 47.024,94.588 46.675 C 94.526 46.575,94.625 46.500,94.820 46.500 C 95.044 46.500,95.196 46.357,95.265 46.083 C 95.322 45.854,95.478 45.667,95.611 45.667 C 95.794 45.667,95.839 45.478,95.801 44.875 C 95.765 44.325,95.683 44.097,95.529 44.129 C 95.408 44.154,95.355 44.100,95.411 44.009 C 95.468 43.917,95.365 43.714,95.182 43.558 C 95.000 43.402,94.888 43.212,94.935 43.137 C 94.982 43.062,94.940 43.000,94.843 43.000 C 94.606 43.000,92.843 41.213,92.962 41.094 C 93.013 41.042,92.926 41.000,92.768 41.000 C 92.610 41.000,92.527 40.925,92.583 40.833 C 92.640 40.742,92.614 40.667,92.527 40.667 C 92.307 40.667,91.190 39.533,91.300 39.422 C 91.349 39.373,91.259 39.333,91.101 39.333 C 90.943 39.333,90.860 39.258,90.917 39.167 C 90.973 39.075,90.890 39.000,90.732 39.000 C 90.574 39.000,90.490 38.954,90.546 38.898 C 90.666 38.779,89.889 38.108,89.441 37.944 C 89.256 37.876,89.170 37.732,89.227 37.584 C 89.281 37.442,89.235 37.354,89.119 37.377 C 89.008 37.399,88.940 37.310,88.968 37.180 C 89.011 36.979,88.978 36.978,88.743 37.172 C 88.498 37.376,88.474 37.356,88.525 36.992 C 88.570 36.679,88.515 36.595,88.292 36.632 C 88.119 36.661,88.000 36.577,88.000 36.424 C 88.000 36.282,87.869 36.164,87.708 36.162 C 87.375 36.156,85.807 34.846,86.125 34.838 C 86.240 34.836,86.333 34.900,86.333 34.982 C 86.333 35.205,86.807 35.344,86.924 35.155 C 86.979 35.065,86.929 35.012,86.812 35.038 C 86.694 35.063,86.586 34.990,86.570 34.875 C 86.554 34.760,86.532 34.631,86.521 34.587 C 86.509 34.544,86.331 34.572,86.125 34.651 C 85.865 34.750,85.683 34.722,85.532 34.560 C 85.412 34.431,85.248 34.366,85.169 34.415 C 85.089 34.465,84.974 34.348,84.914 34.157 C 84.853 33.966,84.714 33.844,84.605 33.885 C 84.495 33.927,84.190 33.745,83.925 33.481 C 83.661 33.216,83.269 33.000,83.056 33.000 C 82.821 33.000,82.667 32.901,82.667 32.750 C 82.667 32.594,82.509 32.500,82.250 32.500 C 82.021 32.500,81.833 32.425,81.833 32.333 C 81.833 32.242,81.646 32.167,81.417 32.167 C 81.188 32.167,81.000 32.093,81.000 32.003 C 81.000 31.913,80.813 31.793,80.583 31.735 C 80.354 31.678,80.167 31.578,80.167 31.513 C 80.167 31.448,79.904 31.293,79.583 31.167 C 79.263 31.041,79.000 30.839,79.000 30.719 C 79.000 30.597,78.816 30.500,78.583 30.500 C 78.354 30.500,78.167 30.425,78.167 30.333 C 78.167 30.242,78.017 30.167,77.833 30.167 C 77.650 30.167,77.500 30.100,77.500 30.018 C 77.500 29.936,77.312 29.822,77.083 29.765 C 76.854 29.707,76.667 29.587,76.667 29.497 C 76.667 29.407,76.479 29.333,76.250 29.333 C 76.021 29.333,75.833 29.258,75.833 29.167 C 75.833 29.075,75.646 29.000,75.417 29.000 C 75.157 29.000,75.000 28.906,75.000 28.750 C 75.000 28.594,74.843 28.500,74.583 28.500 C 74.354 28.500,74.167 28.425,74.167 28.333 C 74.167 28.242,73.975 28.167,73.740 28.167 C 73.506 28.167,73.357 28.096,73.411 28.009 C 73.465 27.922,73.155 27.824,72.712 27.789 C 72.275 27.755,72.854 27.699,74.000 27.665 C 79.193 27.512,60.614 27.375,32.077 27.357 L 0.905 27.337 0.452 27.852 M1.000 31.806 C 1.000 32.040,1.188 32.148,1.432 32.054 C 1.560 32.005,1.623 31.898,1.573 31.816 C 1.456 31.628,1.000 31.619,1.000 31.806 M1.581 32.337 C 1.526 32.427,1.602 32.500,1.750 32.500 C 1.898 32.500,1.972 32.577,1.914 32.671 C 1.856 32.765,1.904 32.821,2.022 32.796 C 2.139 32.771,2.238 32.837,2.242 32.944 C 2.247 33.051,2.301 33.190,2.362 33.251 C 2.424 33.313,2.449 33.226,2.417 33.057 C 2.385 32.888,2.353 32.712,2.346 32.665 C 2.315 32.458,1.676 32.184,1.581 32.337 M5.126 35.777 C 5.241 35.824,5.293 35.930,5.241 36.014 C 5.189 36.098,5.226 36.167,5.323 36.167 C 5.421 36.167,5.500 36.054,5.500 35.917 C 5.500 35.779,5.369 35.673,5.208 35.680 C 5.032 35.688,5.000 35.726,5.126 35.777 M6.667 37.489 C 6.667 37.574,6.818 37.692,7.002 37.751 C 7.187 37.809,7.295 37.927,7.243 38.012 C 7.190 38.097,7.226 38.167,7.323 38.167 C 7.421 38.167,7.500 38.054,7.500 37.917 C 7.500 37.779,7.388 37.667,7.250 37.667 C 7.112 37.667,7.000 37.592,7.000 37.500 C 7.000 37.408,6.925 37.333,6.833 37.333 C 6.742 37.333,6.667 37.403,6.667 37.489 M8.667 39.504 C 8.667 39.581,8.818 39.692,9.002 39.751 C 9.187 39.809,9.295 39.927,9.243 40.012 C 9.190 40.097,9.226 40.167,9.323 40.167 C 9.661 40.167,9.495 39.749,9.082 39.557 C 8.854 39.451,8.667 39.428,8.667 39.504 M49.833 55.833 C 49.146 55.892,48.752 55.953,48.958 55.970 C 49.165 55.986,49.333 56.075,49.333 56.167 C 49.333 56.258,49.802 56.346,50.375 56.361 C 51.074 56.380,51.211 56.411,50.792 56.455 C 50.097 56.527,49.928 56.833,50.583 56.833 C 50.843 56.833,51.000 56.928,51.000 57.083 C 51.000 57.239,51.157 57.333,51.417 57.333 C 51.646 57.333,51.833 57.408,51.833 57.500 C 51.833 57.592,52.021 57.667,52.250 57.667 C 52.509 57.667,52.667 57.761,52.667 57.917 C 52.667 58.072,52.824 58.167,53.083 58.167 C 53.313 58.167,53.500 58.242,53.500 58.333 C 53.500 58.425,53.650 58.500,53.833 58.500 C 54.017 58.500,54.167 58.575,54.167 58.667 C 54.167 58.758,54.354 58.833,54.583 58.833 C 54.843 58.833,55.000 58.928,55.000 59.083 C 55.000 59.239,55.157 59.333,55.417 59.333 C 55.646 59.333,55.833 59.408,55.833 59.500 C 55.833 59.592,56.021 59.667,56.250 59.667 C 56.509 59.667,56.667 59.761,56.667 59.917 C 56.667 60.057,56.816 60.167,57.007 60.167 C 57.194 60.167,57.508 60.317,57.705 60.500 C 57.902 60.683,58.199 60.833,58.365 60.833 C 58.531 60.833,58.667 60.946,58.667 61.083 C 58.667 61.239,58.824 61.333,59.083 61.333 C 59.313 61.333,59.500 61.408,59.500 61.500 C 59.500 61.592,59.650 61.667,59.833 61.667 C 60.019 61.667,60.167 61.778,60.167 61.917 C 60.167 62.072,60.324 62.167,60.583 62.167 C 60.813 62.167,61.000 62.242,61.000 62.333 C 61.000 62.425,61.188 62.500,61.417 62.500 C 61.646 62.500,61.833 62.575,61.833 62.667 C 61.833 62.758,62.021 62.833,62.250 62.833 C 62.509 62.833,62.667 62.928,62.667 63.083 C 62.667 63.239,62.824 63.333,63.083 63.333 C 63.313 63.333,63.500 63.408,63.500 63.500 C 63.500 63.592,63.650 63.667,63.833 63.667 C 64.019 63.667,64.167 63.778,64.167 63.917 C 64.167 64.072,64.324 64.167,64.583 64.167 C 64.813 64.167,65.000 64.242,65.000 64.333 C 65.000 64.425,65.188 64.500,65.417 64.500 C 65.646 64.500,65.833 64.575,65.833 64.667 C 65.833 64.758,65.938 64.833,66.066 64.833 C 66.193 64.833,66.341 64.946,66.394 65.083 C 66.446 65.221,66.604 65.333,66.745 65.333 C 66.885 65.333,67.000 65.408,67.000 65.500 C 67.000 65.592,67.188 65.667,67.417 65.667 C 67.646 65.667,67.833 65.742,67.833 65.833 C 67.833 65.925,68.021 66.000,68.250 66.000 C 68.509 66.000,68.667 66.094,68.667 66.250 C 68.667 66.406,68.824 66.500,69.083 66.500 C 69.313 66.500,69.500 66.575,69.500 66.667 C 69.500 66.758,69.650 66.833,69.833 66.833 C 70.019 66.833,70.167 66.944,70.167 67.083 C 70.167 67.239,70.324 67.333,70.583 67.333 C 70.813 67.333,71.000 67.408,71.000 67.500 C 71.000 67.592,71.188 67.667,71.417 67.667 C 71.646 67.667,71.833 67.742,71.833 67.833 C 71.833 67.925,72.021 68.000,72.250 68.000 C 72.509 68.000,72.667 68.094,72.667 68.250 C 72.667 68.406,72.824 68.500,73.083 68.500 C 73.313 68.500,73.500 68.575,73.500 68.667 C 73.500 68.758,73.650 68.833,73.833 68.833 C 74.019 68.833,74.167 68.944,74.167 69.083 C 74.167 69.239,74.324 69.333,74.583 69.333 C 74.813 69.333,75.000 69.394,75.000 69.469 C 75.000 69.543,75.262 69.707,75.583 69.833 C 75.904 69.959,76.167 70.161,76.167 70.281 C 76.167 70.403,76.350 70.500,76.583 70.500 C 76.813 70.500,77.000 70.575,77.000 70.667 C 77.000 70.758,77.188 70.833,77.417 70.833 C 77.676 70.833,77.833 70.928,77.833 71.083 C 77.833 71.239,77.991 71.333,78.250 71.333 C 78.479 71.333,78.667 71.408,78.667 71.500 C 78.667 71.592,78.854 71.667,79.083 71.667 C 79.313 71.667,79.500 71.742,79.500 71.833 C 79.500 71.925,79.650 72.000,79.833 72.000 C 80.019 72.000,80.167 72.111,80.167 72.250 C 80.167 72.446,80.558 72.577,80.875 72.488 C 80.898 72.482,81.104 72.548,81.333 72.635 C 81.728 72.785,82.292 72.514,82.062 72.284 C 82.015 72.237,82.201 72.067,82.475 71.905 C 82.750 71.743,83.067 71.435,83.182 71.222 C 83.296 71.008,83.457 70.833,83.540 70.833 C 83.748 70.833,84.170 70.393,84.064 70.286 C 84.016 70.238,84.207 70.063,84.488 69.897 C 84.770 69.731,85.000 69.494,85.000 69.371 C 85.000 69.248,85.066 69.188,85.148 69.238 C 85.229 69.289,85.338 69.165,85.391 68.964 C 85.444 68.763,85.536 68.647,85.597 68.708 C 85.720 68.831,86.167 68.439,86.167 68.207 C 86.167 68.124,86.354 67.956,86.583 67.833 C 86.813 67.711,87.000 67.506,87.000 67.379 C 87.000 67.251,87.066 67.188,87.148 67.238 C 87.229 67.289,87.338 67.165,87.391 66.964 C 87.444 66.763,87.536 66.647,87.597 66.708 C 87.720 66.831,88.167 66.439,88.167 66.207 C 88.167 66.124,88.354 65.956,88.583 65.833 C 88.813 65.711,89.000 65.506,89.000 65.379 C 89.000 65.251,89.075 65.193,89.167 65.250 C 89.258 65.307,89.333 65.236,89.333 65.093 C 89.333 64.950,89.408 64.833,89.500 64.833 C 89.709 64.833,91.000 63.516,91.000 63.303 C 91.000 63.217,91.075 63.193,91.167 63.250 C 91.258 63.307,91.333 63.236,91.333 63.093 C 91.333 62.950,91.408 62.833,91.500 62.833 C 91.709 62.833,93.000 61.516,93.000 61.303 C 93.000 61.217,93.075 61.193,93.167 61.250 C 93.258 61.307,93.333 61.236,93.333 61.093 C 93.333 60.950,93.405 60.833,93.492 60.833 C 93.782 60.833,95.333 59.156,95.333 58.843 C 95.333 58.674,95.446 58.492,95.583 58.440 C 95.747 58.377,95.833 58.118,95.833 57.692 C 95.833 57.317,95.728 56.953,95.583 56.833 C 95.446 56.719,95.333 56.523,95.333 56.396 C 95.333 56.270,95.221 56.167,95.083 56.167 C 94.946 56.167,94.852 56.073,94.875 55.958 C 94.920 55.733,52.386 55.615,49.833 55.833 " stroke="none" fill="#ffffff" fill-rule="evenodd"></path><path id="path1" d="M20.375 0.115 C 20.535 0.157,20.667 0.298,20.667 0.429 C 20.667 0.571,20.834 0.667,21.083 0.667 C 21.313 0.667,21.500 0.742,21.500 0.833 C 21.500 0.925,21.650 1.000,21.833 1.000 C 22.017 1.000,22.167 1.067,22.167 1.149 C 22.167 1.230,22.354 1.344,22.583 1.402 C 22.813 1.459,23.000 1.580,23.000 1.670 C 23.000 1.760,23.188 1.833,23.417 1.833 C 23.646 1.833,23.833 1.908,23.833 2.000 C 23.833 2.092,24.021 2.167,24.250 2.167 C 24.509 2.167,24.667 2.261,24.667 2.417 C 24.667 2.572,24.824 2.667,25.083 2.667 C 25.313 2.667,25.500 2.742,25.500 2.833 C 25.500 2.925,25.650 3.000,25.833 3.000 C 26.017 3.000,26.167 3.057,26.167 3.127 C 26.167 3.254,26.661 3.556,27.208 3.762 C 27.369 3.823,27.500 3.938,27.500 4.019 C 27.500 4.100,27.650 4.167,27.833 4.167 C 28.019 4.167,28.167 4.278,28.167 4.417 C 28.167 4.572,28.324 4.667,28.583 4.667 C 28.813 4.667,29.000 4.742,29.000 4.833 C 29.000 4.925,29.188 5.000,29.417 5.000 C 29.646 5.000,29.833 5.075,29.833 5.167 C 29.833 5.258,30.021 5.333,30.250 5.333 C 30.509 5.333,30.667 5.428,30.667 5.583 C 30.667 5.739,30.824 5.833,31.083 5.833 C 31.313 5.833,31.500 5.908,31.500 6.000 C 31.500 6.092,31.650 6.167,31.833 6.167 C 32.019 6.167,32.167 6.278,32.167 6.417 C 32.167 6.572,32.324 6.667,32.583 6.667 C 32.813 6.667,33.000 6.742,33.000 6.833 C 33.000 6.925,33.188 7.000,33.417 7.000 C 33.646 7.000,33.833 7.075,33.833 7.167 C 33.833 7.258,34.021 7.333,34.250 7.333 C 34.483 7.333,34.667 7.430,34.667 7.552 C 34.667 7.673,34.929 7.874,35.250 8.000 C 35.571 8.126,35.833 8.327,35.833 8.448 C 35.833 8.570,36.017 8.667,36.250 8.667 C 36.479 8.667,36.667 8.742,36.667 8.833 C 36.667 8.925,36.854 9.000,37.083 9.000 C 37.313 9.000,37.500 9.075,37.500 9.167 C 37.500 9.258,37.650 9.333,37.833 9.333 C 38.019 9.333,38.167 9.444,38.167 9.583 C 38.167 9.739,38.324 9.833,38.583 9.833 C 38.813 9.833,39.000 9.908,39.000 10.000 C 39.000 10.092,39.188 10.167,39.417 10.167 C 39.646 10.167,39.833 10.240,39.833 10.330 C 39.833 10.420,40.021 10.541,40.250 10.598 C 40.479 10.656,40.667 10.770,40.667 10.851 C 40.667 10.933,40.854 11.000,41.083 11.000 C 41.313 11.000,41.500 11.075,41.500 11.167 C 41.500 11.258,41.650 11.333,41.833 11.333 C 42.019 11.333,42.167 11.444,42.167 11.583 C 42.167 11.739,42.324 11.833,42.583 11.833 C 42.813 11.833,43.000 11.908,43.000 12.000 C 43.000 12.092,43.153 12.167,43.341 12.167 C 43.528 12.167,43.883 12.354,44.131 12.583 C 44.378 12.812,44.674 13.000,44.790 13.000 C 44.905 13.000,45.000 13.075,45.000 13.167 C 45.000 13.258,45.188 13.333,45.417 13.333 C 45.676 13.333,45.833 13.428,45.833 13.583 C 45.833 13.739,45.991 13.833,46.250 13.833 C 46.479 13.833,46.667 13.908,46.667 14.000 C 46.667 14.092,46.820 14.167,47.007 14.167 C 47.325 14.167,47.484 14.260,48.077 14.792 C 48.205 14.906,48.465 15.000,48.655 15.000 C 48.845 15.000,49.000 15.075,49.000 15.167 C 49.000 15.258,49.188 15.333,49.417 15.333 C 49.676 15.333,49.833 15.428,49.833 15.583 C 49.833 15.739,49.991 15.833,50.250 15.833 C 50.479 15.833,50.667 15.908,50.667 16.000 C 50.667 16.092,50.820 16.167,51.007 16.167 C 51.194 16.167,51.459 16.260,51.596 16.375 C 52.101 16.798,52.271 16.921,52.629 17.125 C 52.831 17.240,53.090 17.335,53.206 17.336 C 53.322 17.337,53.671 17.562,53.981 17.836 C 54.291 18.110,54.741 18.338,54.981 18.344 L 55.417 18.354 55.004 18.519 C 53.967 18.933,55.517 18.995,66.964 18.997 C 77.372 19.000,78.856 18.969,78.940 18.750 C 78.992 18.613,79.181 18.500,79.359 18.500 C 79.694 18.500,81.333 16.984,81.333 16.675 C 81.333 16.579,81.412 16.500,81.508 16.500 C 81.735 16.500,83.333 14.902,83.333 14.675 C 83.333 14.579,83.412 14.500,83.508 14.500 C 83.735 14.500,85.333 12.902,85.333 12.675 C 85.333 12.579,85.412 12.500,85.508 12.500 C 85.735 12.500,87.333 10.902,87.333 10.675 C 87.333 10.579,87.415 10.500,87.514 10.500 C 87.614 10.500,88.098 10.087,88.590 9.583 C 89.083 9.079,89.564 8.667,89.659 8.667 C 89.755 8.667,89.833 8.593,89.833 8.502 C 89.833 8.285,91.448 6.667,91.664 6.667 C 91.757 6.667,91.833 6.593,91.833 6.502 C 91.833 6.285,93.448 4.667,93.664 4.667 C 93.757 4.667,93.833 4.589,93.833 4.494 C 93.833 4.399,94.171 3.993,94.583 3.592 C 94.996 3.191,95.333 2.781,95.333 2.682 C 95.333 2.582,95.446 2.500,95.583 2.500 C 95.775 2.500,95.833 2.287,95.833 1.583 C 95.833 0.880,95.775 0.667,95.583 0.667 C 95.446 0.667,95.333 0.562,95.333 0.434 C 95.333 0.005,94.891 -0.000,57.445 0.019 C 36.896 0.030,20.215 0.073,20.375 0.115 M70.417 27.500 C 73.875 27.555,75.271 27.617,74.000 27.658 C 72.854 27.696,72.275 27.755,72.712 27.789 C 73.155 27.824,73.465 27.922,73.411 28.009 C 73.357 28.096,73.506 28.167,73.740 28.167 C 73.975 28.167,74.167 28.242,74.167 28.333 C 74.167 28.425,74.354 28.500,74.583 28.500 C 74.843 28.500,75.000 28.594,75.000 28.750 C 75.000 28.906,75.157 29.000,75.417 29.000 C 75.646 29.000,75.833 29.075,75.833 29.167 C 75.833 29.258,76.021 29.333,76.250 29.333 C 76.479 29.333,76.667 29.407,76.667 29.497 C 76.667 29.587,76.854 29.707,77.083 29.765 C 77.313 29.822,77.500 29.936,77.500 30.018 C 77.500 30.100,77.650 30.167,77.833 30.167 C 78.017 30.167,78.167 30.242,78.167 30.333 C 78.167 30.425,78.354 30.500,78.583 30.500 C 78.816 30.500,79.000 30.597,79.000 30.719 C 79.000 30.839,79.262 31.041,79.583 31.167 C 79.904 31.293,80.167 31.448,80.167 31.513 C 80.167 31.578,80.354 31.678,80.583 31.735 C 80.813 31.793,81.000 31.913,81.000 32.003 C 81.000 32.093,81.188 32.167,81.417 32.167 C 81.646 32.167,81.833 32.242,81.833 32.333 C 81.833 32.425,82.021 32.500,82.250 32.500 C 82.509 32.500,82.667 32.594,82.667 32.750 C 82.667 32.901,82.821 33.000,83.056 33.000 C 83.269 33.000,83.661 33.216,83.925 33.481 C 84.190 33.745,84.495 33.927,84.605 33.885 C 84.714 33.844,84.853 33.966,84.914 34.157 C 84.974 34.348,85.089 34.465,85.169 34.415 C 85.248 34.366,85.409 34.429,85.527 34.554 C 85.644 34.680,85.892 34.750,86.078 34.710 C 86.320 34.659,86.355 34.682,86.200 34.792 C 85.976 34.952,87.261 36.167,87.653 36.167 C 87.937 36.167,87.863 35.834,87.552 35.715 C 87.302 35.619,87.061 35.378,85.958 34.116 C 85.798 33.932,85.667 33.834,85.667 33.898 C 85.667 33.961,85.562 33.916,85.433 33.798 C 85.305 33.680,85.227 33.556,85.259 33.522 C 85.365 33.410,84.832 32.970,84.538 32.927 C 84.380 32.904,84.247 32.817,84.244 32.734 C 84.233 32.450,83.753 31.833,83.543 31.833 C 83.428 31.833,83.333 31.713,83.333 31.566 C 83.333 31.400,83.241 31.333,83.092 31.390 C 82.936 31.450,82.881 31.403,82.937 31.257 C 82.988 31.125,82.879 30.984,82.679 30.920 C 82.489 30.860,82.333 30.752,82.333 30.681 C 82.333 30.468,81.726 29.833,81.522 29.833 C 81.418 29.833,81.333 29.758,81.333 29.666 C 81.333 29.193,79.556 27.833,78.937 27.833 C 78.716 27.833,78.492 27.721,78.440 27.583 C 78.356 27.366,77.459 27.338,71.547 27.372 L 64.750 27.410 70.417 27.500 M88.505 37.052 C 88.502 37.217,88.572 37.309,88.659 37.255 C 88.747 37.200,88.943 37.346,89.095 37.578 C 89.354 37.973,89.983 38.210,89.743 37.822 C 89.683 37.724,89.597 37.681,89.552 37.725 C 89.508 37.770,89.255 37.569,88.991 37.278 C 88.607 36.857,88.509 36.811,88.505 37.052 " stroke="none" fill="#ffffff" fill-rule="evenodd"></path><path id="path2" d="M0.874 30.791 C 0.759 30.830,0.714 30.949,0.773 31.056 C 0.843 31.181,0.802 31.176,0.658 31.042 C 0.240 30.654,0.106 30.830,0.500 31.250 C 0.715 31.479,1.024 31.667,1.186 31.667 C 1.348 31.667,1.535 31.754,1.601 31.862 C 1.685 31.998,1.625 32.020,1.402 31.935 C 1.140 31.835,1.122 31.852,1.300 32.032 C 1.419 32.152,1.588 32.250,1.675 32.250 C 1.762 32.250,1.826 32.313,1.817 32.391 C 1.789 32.635,2.710 33.493,2.885 33.385 C 2.979 33.327,3.000 33.366,2.933 33.474 C 2.857 33.596,2.940 33.667,3.157 33.667 C 3.346 33.667,3.500 33.739,3.500 33.828 C 3.500 33.917,3.369 33.944,3.208 33.889 C 2.973 33.808,2.981 33.838,3.249 34.047 C 3.493 34.236,3.614 34.253,3.705 34.111 C 3.781 33.990,3.829 34.047,3.831 34.260 C 3.834 34.662,4.708 35.564,4.913 35.377 C 4.990 35.307,4.999 35.344,4.934 35.458 C 4.854 35.596,4.929 35.667,5.157 35.667 C 5.398 35.667,5.500 35.774,5.500 36.028 C 5.500 36.226,5.550 36.339,5.610 36.279 C 5.671 36.218,5.808 36.337,5.915 36.543 C 6.023 36.748,6.204 36.896,6.318 36.871 C 6.432 36.846,6.474 36.907,6.412 37.007 C 6.349 37.110,6.452 37.229,6.650 37.281 C 6.842 37.331,7.000 37.438,7.000 37.519 C 7.000 37.600,7.112 37.667,7.250 37.667 C 7.388 37.667,7.500 37.794,7.500 37.950 C 7.500 38.288,8.912 39.667,9.258 39.667 C 9.391 39.667,9.500 39.795,9.500 39.951 C 9.500 40.108,9.869 40.589,10.321 41.019 C 10.773 41.450,11.098 41.847,11.043 41.901 C 10.989 41.956,11.057 42.000,11.194 42.000 C 11.331 42.000,11.540 42.179,11.657 42.398 C 11.774 42.617,12.041 42.888,12.250 43.000 C 12.459 43.112,12.726 43.383,12.843 43.602 C 12.960 43.821,13.156 44.000,13.278 44.000 C 13.400 44.000,13.500 44.066,13.500 44.147 C 13.500 44.344,14.831 45.667,15.029 45.667 C 15.116 45.667,15.145 45.734,15.094 45.816 C 15.044 45.897,15.189 46.011,15.418 46.069 C 15.646 46.126,15.833 46.247,15.833 46.337 C 15.833 46.426,16.021 46.500,16.250 46.500 C 16.479 46.500,16.667 46.575,16.667 46.667 C 16.667 46.776,19.740 46.821,25.625 46.798 C 30.552 46.779,33.805 46.739,32.853 46.709 C 31.679 46.672,31.010 46.576,30.774 46.411 C 30.583 46.276,30.293 46.167,30.130 46.167 C 29.967 46.167,29.833 46.054,29.833 45.917 C 29.833 45.761,29.676 45.667,29.417 45.667 C 29.188 45.667,29.000 45.592,29.000 45.500 C 29.000 45.408,28.813 45.333,28.583 45.333 C 28.354 45.333,28.167 45.258,28.167 45.167 C 28.167 45.075,28.017 45.000,27.833 45.000 C 27.648 45.000,27.500 44.889,27.500 44.750 C 27.500 44.594,27.343 44.500,27.083 44.500 C 26.854 44.500,26.667 44.425,26.667 44.333 C 26.667 44.242,26.479 44.167,26.250 44.167 C 25.991 44.167,25.833 44.072,25.833 43.917 C 25.833 43.761,25.676 43.667,25.417 43.667 C 25.188 43.667,25.000 43.592,25.000 43.500 C 25.000 43.408,24.813 43.333,24.583 43.333 C 24.354 43.333,24.167 43.258,24.167 43.167 C 24.167 43.075,24.017 43.000,23.833 43.000 C 23.648 43.000,23.500 42.889,23.500 42.750 C 23.500 42.611,23.352 42.500,23.167 42.500 C 22.983 42.500,22.833 42.425,22.833 42.333 C 22.833 42.242,22.701 42.167,22.540 42.167 C 22.379 42.167,22.044 41.979,21.797 41.750 C 21.550 41.521,21.195 41.333,21.007 41.333 C 20.820 41.333,20.667 41.258,20.667 41.167 C 20.667 41.075,20.479 41.000,20.250 41.000 C 19.991 41.000,19.833 40.906,19.833 40.750 C 19.833 40.594,19.676 40.500,19.417 40.500 C 19.188 40.500,19.000 40.425,19.000 40.333 C 19.000 40.242,18.813 40.167,18.583 40.167 C 18.324 40.167,18.167 40.072,18.167 39.917 C 18.167 39.778,18.019 39.667,17.833 39.667 C 17.650 39.667,17.500 39.592,17.500 39.500 C 17.500 39.408,17.313 39.333,17.083 39.333 C 16.854 39.333,16.667 39.258,16.667 39.167 C 16.667 39.075,16.479 39.000,16.250 39.000 C 15.991 39.000,15.833 38.906,15.833 38.750 C 15.833 38.594,15.676 38.500,15.417 38.500 C 15.188 38.500,15.000 38.425,15.000 38.333 C 15.000 38.242,14.813 38.167,14.583 38.167 C 14.350 38.167,14.167 38.070,14.167 37.948 C 14.167 37.827,13.904 37.626,13.583 37.500 C 13.262 37.374,13.000 37.210,13.000 37.136 C 13.000 37.061,12.813 37.000,12.583 37.000 C 12.324 37.000,12.167 36.906,12.167 36.750 C 12.167 36.611,12.019 36.500,11.833 36.500 C 11.650 36.500,11.500 36.425,11.500 36.333 C 11.500 36.242,11.313 36.167,11.083 36.167 C 10.824 36.167,10.667 36.072,10.667 35.917 C 10.667 35.761,10.509 35.667,10.250 35.667 C 10.021 35.667,9.833 35.592,9.833 35.500 C 9.833 35.408,9.646 35.333,9.417 35.333 C 9.188 35.333,9.000 35.258,9.000 35.167 C 9.000 35.075,8.813 35.000,8.583 35.000 C 8.324 35.000,8.167 34.906,8.167 34.750 C 8.167 34.611,8.019 34.500,7.833 34.500 C 7.650 34.500,7.500 34.425,7.500 34.333 C 7.500 34.242,7.313 34.167,7.083 34.167 C 6.824 34.167,6.667 34.072,6.667 33.917 C 6.667 33.761,6.509 33.667,6.250 33.667 C 6.021 33.667,5.833 33.609,5.833 33.539 C 5.833 33.469,5.522 33.263,5.142 33.081 C 4.040 32.554,3.833 32.429,3.833 32.294 C 3.833 32.224,3.646 32.167,3.417 32.167 C 3.157 32.167,3.000 32.072,3.000 31.917 C 3.000 31.763,2.844 31.667,2.597 31.667 C 2.376 31.667,2.169 31.610,2.139 31.542 C 2.025 31.286,1.076 30.723,0.874 30.791 M16.333 55.917 C 16.219 56.054,15.985 56.167,15.813 56.167 C 15.641 56.167,15.500 56.242,15.500 56.333 C 15.500 56.425,15.400 56.500,15.278 56.500 C 15.156 56.500,14.956 56.688,14.833 56.917 C 14.711 57.146,14.543 57.333,14.460 57.333 C 14.306 57.333,13.833 57.749,13.833 57.885 C 13.833 57.984,12.484 59.333,12.385 59.333 C 12.249 59.333,11.833 59.806,11.833 59.960 C 11.833 60.043,11.646 60.211,11.417 60.333 C 11.188 60.456,11.000 60.624,11.000 60.707 C 11.000 60.879,10.577 61.333,10.417 61.333 C 10.256 61.333,9.833 61.788,9.833 61.960 C 9.833 62.043,9.646 62.211,9.417 62.333 C 9.188 62.456,9.000 62.661,9.000 62.788 C 9.000 62.915,8.925 62.973,8.833 62.917 C 8.742 62.860,8.667 62.931,8.667 63.073 C 8.667 63.216,8.586 63.333,8.488 63.333 C 8.271 63.333,7.833 63.752,7.833 63.960 C 7.833 64.043,7.646 64.211,7.417 64.333 C 7.188 64.456,7.000 64.661,7.000 64.788 C 7.000 64.915,6.925 64.973,6.833 64.917 C 6.742 64.860,6.667 64.931,6.667 65.073 C 6.667 65.216,6.586 65.333,6.488 65.333 C 6.308 65.333,5.833 65.739,5.833 65.892 C 5.833 66.059,4.845 66.956,4.757 66.869 C 4.708 66.819,4.667 66.903,4.667 67.056 C 4.667 67.208,4.586 67.333,4.488 67.333 C 4.308 67.333,3.833 67.739,3.833 67.892 C 3.833 68.059,2.845 68.956,2.757 68.869 C 2.708 68.819,2.667 68.903,2.667 69.056 C 2.667 69.208,2.586 69.333,2.488 69.333 C 2.280 69.333,1.835 69.747,1.829 69.946 C 1.826 70.022,1.566 70.271,1.250 70.500 C 0.934 70.729,0.674 71.010,0.671 71.125 C 0.669 71.240,0.556 71.333,0.420 71.333 C 0.079 71.333,-0.025 71.872,0.034 73.335 L 0.083 74.583 39.833 74.569 C 83.421 74.553,79.971 74.597,80.177 74.056 C 80.259 73.842,80.423 73.667,80.542 73.667 C 80.772 73.667,81.417 73.008,81.207 72.988 C 81.139 72.982,81.233 72.912,81.417 72.833 C 81.708 72.708,81.713 72.686,81.458 72.658 C 81.298 72.640,81.092 72.606,81.000 72.583 C 80.908 72.560,80.683 72.532,80.500 72.521 C 80.317 72.509,80.167 72.387,80.167 72.250 C 80.167 72.111,80.019 72.000,79.833 72.000 C 79.650 72.000,79.500 71.925,79.500 71.833 C 79.500 71.742,79.313 71.667,79.083 71.667 C 78.854 71.667,78.667 71.592,78.667 71.500 C 78.667 71.408,78.479 71.333,78.250 71.333 C 77.991 71.333,77.833 71.239,77.833 71.083 C 77.833 70.928,77.676 70.833,77.417 70.833 C 77.188 70.833,77.000 70.758,77.000 70.667 C 77.000 70.575,76.813 70.500,76.583 70.500 C 76.350 70.500,76.167 70.403,76.167 70.281 C 76.167 70.161,75.904 69.959,75.583 69.833 C 75.262 69.707,75.000 69.543,75.000 69.469 C 75.000 69.394,74.813 69.333,74.583 69.333 C 74.324 69.333,74.167 69.239,74.167 69.083 C 74.167 68.944,74.019 68.833,73.833 68.833 C 73.650 68.833,73.500 68.758,73.500 68.667 C 73.500 68.575,73.313 68.500,73.083 68.500 C 72.824 68.500,72.667 68.406,72.667 68.250 C 72.667 68.094,72.509 68.000,72.250 68.000 C 72.021 68.000,71.833 67.925,71.833 67.833 C 71.833 67.742,71.646 67.667,71.417 67.667 C 71.188 67.667,71.000 67.592,71.000 67.500 C 71.000 67.408,70.813 67.333,70.583 67.333 C 70.324 67.333,70.167 67.239,70.167 67.083 C 70.167 66.944,70.019 66.833,69.833 66.833 C 69.650 66.833,69.500 66.758,69.500 66.667 C 69.500 66.575,69.313 66.500,69.083 66.500 C 68.824 66.500,68.667 66.406,68.667 66.250 C 68.667 66.094,68.509 66.000,68.250 66.000 C 68.021 66.000,67.833 65.925,67.833 65.833 C 67.833 65.742,67.646 65.667,67.417 65.667 C 67.188 65.667,67.000 65.592,67.000 65.500 C 67.000 65.408,66.885 65.333,66.745 65.333 C 66.604 65.333,66.446 65.221,66.394 65.083 C 66.341 64.946,66.193 64.833,66.066 64.833 C 65.938 64.833,65.833 64.758,65.833 64.667 C 65.833 64.575,65.646 64.500,65.417 64.500 C 65.188 64.500,65.000 64.425,65.000 64.333 C 65.000 64.242,64.813 64.167,64.583 64.167 C 64.324 64.167,64.167 64.072,64.167 63.917 C 64.167 63.778,64.019 63.667,63.833 63.667 C 63.650 63.667,63.500 63.592,63.500 63.500 C 63.500 63.408,63.313 63.333,63.083 63.333 C 62.824 63.333,62.667 63.239,62.667 63.083 C 62.667 62.928,62.509 62.833,62.250 62.833 C 62.021 62.833,61.833 62.758,61.833 62.667 C 61.833 62.575,61.646 62.500,61.417 62.500 C 61.188 62.500,61.000 62.425,61.000 62.333 C 61.000 62.242,60.813 62.167,60.583 62.167 C 60.324 62.167,60.167 62.072,60.167 61.917 C 60.167 61.778,60.019 61.667,59.833 61.667 C 59.650 61.667,59.500 61.592,59.500 61.500 C 59.500 61.408,59.313 61.333,59.083 61.333 C 58.824 61.333,58.667 61.239,58.667 61.083 C 58.667 60.946,58.531 60.833,58.365 60.833 C 58.199 60.833,57.902 60.683,57.705 60.500 C 57.508 60.317,57.194 60.167,57.007 60.167 C 56.816 60.167,56.667 60.057,56.667 59.917 C 56.667 59.761,56.509 59.667,56.250 59.667 C 56.021 59.667,55.833 59.592,55.833 59.500 C 55.833 59.408,55.646 59.333,55.417 59.333 C 55.157 59.333,55.000 59.239,55.000 59.083 C 55.000 58.928,54.843 58.833,54.583 58.833 C 54.354 58.833,54.167 58.758,54.167 58.667 C 54.167 58.575,54.017 58.500,53.833 58.500 C 53.650 58.500,53.500 58.425,53.500 58.333 C 53.500 58.242,53.313 58.167,53.083 58.167 C 52.824 58.167,52.667 58.072,52.667 57.917 C 52.667 57.761,52.509 57.667,52.250 57.667 C 52.021 57.667,51.833 57.592,51.833 57.500 C 51.833 57.408,51.646 57.333,51.417 57.333 C 51.157 57.333,51.000 57.239,51.000 57.083 C 51.000 56.928,50.843 56.833,50.583 56.833 C 49.928 56.833,50.097 56.527,50.792 56.455 C 51.211 56.411,51.074 56.380,50.375 56.361 C 49.802 56.346,49.333 56.258,49.333 56.167 C 49.333 56.075,49.165 55.986,48.958 55.970 C 48.752 55.953,49.146 55.892,49.833 55.833 C 50.521 55.775,43.311 55.713,33.812 55.697 C 18.638 55.670,16.516 55.697,16.333 55.917 " stroke="none" fill="#ffffff" fill-rule="evenodd"></path></g></svg>